<svg width="121" height="120" viewBox="0 0 121 120" fill="none" xmlns="http://www.w3.org/2000/svg">
<path d="M114.582 53.0323L114.398 52.9305C99.9532 44.7233 64.2681 41.2795 34.8173 45.242L34.6762 45.2617V45.1205C34.7156 23.7981 40.152 7.40997 48.8615 2.35432C52.6303 0.16463 56.8751 0.282814 61.1396 2.68261C74.8423 0.860602 87.8459 4.66219 97.8226 13.4078C103.126 18.0783 107.321 23.8733 110.101 30.3705C113.098 37.2646 114.608 44.8152 114.595 52.8386L114.582 53.0323ZM60.5388 43.3543C82.5801 43.3543 103.873 46.7652 114.335 52.6121C114.335 44.7036 112.819 37.2481 109.864 30.4526C107.095 23.9892 102.921 18.2239 97.6453 13.5752C87.7277 4.88542 74.7603 1.10025 61.1297 2.94195H61.0903L61.0542 2.91897C56.7864 0.502768 52.7354 0.381299 48.983 2.55785C40.372 7.56754 34.9881 23.8113 34.9224 44.9793C43.4164 43.8772 51.9736 43.3343 60.5388 43.3543V43.3543Z" fill="#E2E1DF"/>
<path d="M87.9956 7.12104C80.7273 2.99116 62.7371 1.26108 47.8984 3.25051L47.8656 3.00758C62.7502 1.00501 80.8061 2.75479 88.1171 6.90765L87.9956 7.12104Z" fill="#E2E1DF"/>
<path d="M107.142 25.0686C94.6869 18.0038 63.8737 15.0164 38.4543 18.4339L38.4215 18.191C63.8836 14.7669 94.769 17.7576 107.264 24.8552L107.142 25.0686Z" fill="#E2E1DF"/>
<path d="M94.0568 46.2892H93.8106C93.8467 26.4704 88.0885 10.7782 78.404 4.30763C73.24 0.860598 67.2782 0.368164 61.1622 2.9321L61.0539 2.70558C67.252 0.125231 73.2925 0.607817 78.5287 4.10409C88.3019 10.6173 94.0929 26.3883 94.0568 46.2892Z" fill="#E2E1DF"/>
<path d="M65.4786 43.525H65.2324C65.2816 15.6204 63.8141 0.801442 62.3336 0.611034C62.1891 0.591337 61.782 0.768612 61.2338 2.84996L60.9941 2.78759C61.4472 1.07064 61.8838 0.29916 62.3664 0.364818C64.5692 0.653712 65.518 22.2486 65.4786 43.525Z" fill="#E2E1DF"/>
<path d="M7.68034 67.4081L7.4965 67.3063C2.97596 64.7358 0.878197 61.8666 1.42972 59.0104C1.9517 56.3316 4.76185 53.7808 9.42684 51.5452C14.1082 33.1511 26.5832 17.1635 42.6365 8.68375C44.452 5.85062 46.5399 3.70033 48.874 2.35434C52.6526 0.158092 56.9105 0.28284 61.1882 2.71218L61.5164 2.89274L61.152 2.94198C54.7427 3.82797 48.5396 5.83605 42.827 8.87416C37.8764 16.6382 34.9743 29.5564 34.948 45.1205V45.2289H34.843C24.1375 46.6668 15.4739 48.9385 9.66649 51.6863C8.37782 56.7524 7.71629 61.9575 7.69676 67.1848L7.68034 67.4081ZM9.35133 51.8373C4.87019 54.0106 2.17493 56.4728 1.67265 59.0597C1.14739 61.7648 3.1401 64.5027 7.43741 66.9879C7.46984 61.8795 8.11237 56.7933 9.35133 51.8373V51.8373ZM42.3772 9.10068C26.6193 17.564 14.3676 33.3087 9.71245 51.4106C15.5264 48.6858 24.1178 46.4403 34.6624 45.0122C34.7182 29.6942 37.5481 16.9304 42.3772 9.10068ZM54.5239 1.01821C52.5706 1.0305 50.6565 1.56797 48.9824 2.5743C46.7927 3.84806 44.8131 5.85719 43.0732 8.4835C48.5922 5.59117 54.5602 3.65214 60.7253 2.74829C58.8314 1.66021 56.6945 1.06532 54.5108 1.01821H54.5239Z" fill="#E2E1DF"/>
<path d="M34.0815 14.3729C31.7835 13.0598 30.7067 11.5923 30.9923 10.1249C31.5898 7.05537 38.0538 4.32729 47.8664 3.00757L47.8992 3.2505C38.195 4.56366 31.8131 7.18997 31.2353 10.1708C30.9726 11.5267 32.0002 12.9055 34.1899 14.1563L34.0815 14.3729Z" fill="#E2E1DF"/>
<path d="M14.8598 37.4813C10.9466 35.2588 9.13442 32.7769 9.60716 30.3016C10.6183 25.0851 21.6554 20.453 38.4145 18.191L38.4473 18.434C21.8031 20.6729 10.8448 25.2263 9.84025 30.3476C9.38393 32.708 11.1534 35.1012 14.9681 37.2646L14.8598 37.4813Z" fill="#E2E1DF"/>
<path d="M11.5248 50.7803H11.2785C11.3081 34.3658 17.4865 19.839 28.2248 10.9293C37.3381 3.37861 49.0252 0.446992 61.1358 2.69905L61.0931 2.94199C49.0547 0.703059 37.4399 3.59857 28.3824 11.1164C17.6999 19.9736 11.5543 34.438 11.5248 50.7803Z" fill="#E2E1DF"/>
<path d="M1.75131 58.7117H1.5051C1.53136 43.8337 7.47339 29.8518 18.2478 19.3466C29.6066 8.25698 44.8392 2.35435 61.1289 2.70562V2.95183C44.8655 2.5743 29.715 8.4835 18.4054 19.514C7.69334 29.9733 1.77758 43.8895 1.75131 58.7117Z" fill="#E2E1DF"/>
<path d="M61.4777 76.6657C39.3051 76.6657 17.9006 73.2154 7.49716 67.3062L7.43478 67.2701V67.1979C7.49388 35.6034 31.5673 6.66799 61.0969 2.69897H61.1396L61.1757 2.71867C75.6631 10.9489 87.3994 43.3313 87.3403 74.9061V75.0145H87.2353C78.6952 76.1323 70.0906 76.6839 61.4777 76.6657V76.6657ZM7.681 67.1257C22.1257 75.2902 57.709 78.7241 87.0941 74.7912C87.1269 43.3576 75.4727 11.1623 61.0903 2.94847C31.7183 6.92077 7.7762 35.692 7.681 67.1257Z" fill="#E2E1DF"/>
<path d="M61.3429 19.1003C50.1483 19.1003 39.3476 17.3571 34.0949 14.3729L34.2164 14.1562C41.4847 18.2861 59.4717 20.0228 74.3136 18.0268L74.3464 18.2697C70.0351 18.8341 65.691 19.1116 61.3429 19.1003V19.1003Z" fill="#E2E1DF"/>
<path d="M61.4709 45.5801C42.3251 45.5801 23.8425 42.5993 14.8539 37.4977L14.9754 37.281C27.4307 44.3589 58.2439 47.3365 83.6633 43.9157L83.6961 44.1619C76.327 45.1233 68.9025 45.5971 61.4709 45.5801V45.5801Z" fill="#E2E1DF"/>
<path d="M28.2251 73.7309H27.9789C28.0216 42.1528 42.8701 10.289 61.054 2.70557L61.1492 2.93208C43.0507 10.4827 28.2645 42.2414 28.2251 73.7309Z" fill="#E2E1DF"/>
<path d="M56.7861 76.4952H56.5399C56.5957 44.9532 58.5949 11.8879 60.9947 2.78772L61.2344 2.85009C58.8379 11.9338 56.8419 44.9696 56.7861 76.4952Z" fill="#E2E1DF"/>
<path d="M87.0939 75.0407V74.8996C87.153 43.4035 75.4725 11.1097 61.0541 2.9255L60.7258 2.74494L61.0869 2.69898C74.7897 0.857283 87.826 4.66872 97.7994 13.3914C103.103 18.0618 107.298 23.8569 110.077 30.354C113.065 37.2218 114.578 44.7561 114.572 52.7499C119.05 55.3106 121.137 58.1667 120.576 61.0097C119.407 67.0436 106.627 72.4111 87.2252 75.021L87.0939 75.0407ZM61.4907 2.90252C75.8106 11.4052 87.3631 43.4626 87.3402 74.765C106.555 72.1649 119.184 66.886 120.343 60.9768C120.875 58.2323 118.82 55.455 114.398 52.9436L114.335 52.9075V52.8353C114.335 44.848 112.845 37.3236 109.864 30.4657C107.095 24.0023 102.921 18.237 97.6451 13.5883C87.8162 4.9609 74.9866 1.17572 61.4907 2.90252Z" fill="#E2E1DF"/>
<path d="M74.3325 18.2698L74.2996 18.0269C84.0038 16.7137 90.3858 14.0874 90.9636 11.1065C91.2262 9.75398 90.2019 8.37517 88.009 7.1211L88.1304 6.90771C90.4285 8.22087 91.5052 9.68504 91.2196 11.1558C90.5992 14.2253 84.145 16.9501 74.3325 18.2698Z" fill="#E2E1DF"/>
<path d="M83.7063 44.1455L83.6735 43.8993C100.324 41.6603 111.283 37.0971 112.274 31.9857C112.73 29.6253 110.961 27.2353 107.146 25.0686L107.268 24.8552C111.181 27.0777 112.993 29.5596 112.52 32.0349C111.499 37.2514 100.449 41.8901 83.7063 44.1455Z" fill="#E2E1DF"/>
<path d="M110.736 69.2399H110.49C110.549 37.7602 88.3898 8.02054 61.0926 2.94191L61.1353 2.69897C88.5441 7.7973 110.796 37.6486 110.736 69.2399Z" fill="#E2E1DF"/>
<path d="M120.51 61.3184H120.264C120.323 29.8519 93.7871 3.66425 61.1125 2.94202V2.6958C93.925 3.42132 120.569 29.7173 120.51 61.3184Z" fill="#E2E1DF"/>
<path d="M60.876 117.324L60.8399 117.305C46.3558 109.074 34.6161 76.6921 34.6752 45.1205V45.0122H34.7836C64.2771 41.0432 100.047 44.5066 114.518 52.727L114.581 52.7631V52.8353C114.522 84.4265 90.4482 113.362 60.9187 117.331L60.876 117.324ZM34.9215 45.2288C34.8919 76.6592 46.5429 108.855 60.9252 117.068C90.2972 113.093 114.236 84.3182 114.335 52.8944C99.88 44.7298 64.3066 41.3124 34.9215 45.2288Z" fill="#E2E1DF"/>
<path d="M107.034 82.7522C94.5791 75.6776 63.7659 72.7 38.3465 76.1175L38.3137 75.8746C63.7791 72.4505 94.6612 75.4412 107.159 82.5388L107.034 82.7522Z" fill="#E2E1DF"/>
<path d="M87.8117 105.86C80.5434 101.731 62.5564 99.9939 47.7145 101.99L47.6816 101.747C62.5663 99.7444 80.6254 101.494 87.9331 105.647L87.8117 105.86Z" fill="#E2E1DF"/>
<path d="M60.9487 117.311L60.8535 117.085C78.9685 109.534 93.7513 77.7754 93.8104 46.2892H94.0567C93.9976 77.8673 79.1458 109.728 60.9487 117.311Z" fill="#E2E1DF"/>
<path d="M61.0207 117.229L60.7844 117.167C63.1776 108.083 65.1736 75.0473 65.2327 43.525H65.4789C65.4198 75.067 63.4205 108.129 61.0207 117.229Z" fill="#E2E1DF"/>
<path d="M54.1985 117.774C42.994 117.774 32.5315 113.923 24.206 106.612C18.9025 101.942 14.7079 96.1468 11.928 89.6496C8.94062 82.7851 7.43049 75.2508 7.43377 67.257C2.95591 64.6963 0.867995 61.8402 1.42937 58.9973C2.60136 52.9633 15.3816 47.5925 34.7835 44.9859L34.9214 44.9662V45.1073C34.8623 76.6001 46.5461 108.887 60.9613 117.078L61.2896 117.259L60.9284 117.305C58.6982 117.612 56.4498 117.769 54.1985 117.774V117.774ZM34.6752 45.2518C15.4604 47.8518 2.83116 53.1307 1.6723 59.0399C1.14047 61.7844 3.19556 64.5618 7.61761 67.0732L7.67999 67.1093V67.1815C7.67999 75.1688 9.17042 82.6931 12.1546 89.5478C14.9205 96.0113 19.0924 101.777 24.3669 106.425C34.1992 115.039 47.0188 118.825 60.5279 117.104C46.208 108.612 34.6522 76.5607 34.6752 45.2518Z" fill="#E2E1DF"/>
<path d="M14.7648 95.1517C10.8549 92.9325 9.03942 90.4473 9.51216 87.9753C10.5233 82.7588 21.5636 78.1267 38.3195 75.8647L38.3523 76.1077C21.7015 78.3466 10.7432 82.9131 9.75509 88.0213C9.29549 90.3817 11.0682 92.7749 14.8797 94.9383L14.7648 95.1517Z" fill="#E2E1DF"/>
<path d="M33.9011 113.109C31.6031 111.796 30.5263 110.332 30.8086 108.864C31.4061 105.792 37.8701 103.067 47.6827 101.747L47.7155 101.99C38.0113 103.303 31.6293 105.946 31.0515 108.91C30.7889 110.266 31.8165 111.642 34.0061 112.896L33.9011 113.109Z" fill="#E2E1DF"/>
<path d="M60.8798 117.318C33.4775 112.223 11.2196 82.3681 11.2787 50.7802H11.5249C11.4658 82.2565 33.6253 111.996 60.9258 117.075L60.8798 117.318Z" fill="#E2E1DF"/>
<path d="M60.8992 117.321C28.09 116.596 1.4461 90.2997 1.50519 58.7019H1.75141C1.69232 90.1684 28.2279 116.353 60.9058 117.075L60.8992 117.321Z" fill="#E2E1DF"/>
<path d="M67.5106 119.222C65.1717 119.177 62.8849 118.523 60.8758 117.324C58.6625 117.623 56.4318 117.773 54.1984 117.774C42.9939 117.774 32.5314 113.923 24.206 106.612C18.9024 101.942 14.7078 96.1468 11.928 89.6496C8.93068 82.7556 7.42055 75.2049 7.43368 67.1848V66.9747L7.61424 67.0765C22.059 75.2837 57.7472 78.7275 87.198 74.765L87.3359 74.7453V74.8865C87.2965 96.2089 81.8633 112.594 73.1538 117.649C71.4471 118.669 69.4984 119.212 67.5106 119.222V119.222ZM60.9251 117.068L60.9612 117.091C65.2289 119.508 69.28 119.629 73.0324 117.452C81.6467 112.449 87.0306 96.2056 87.093 75.0408C57.7505 78.9606 22.2461 75.5431 7.6799 67.4081C7.6799 75.3165 9.19659 82.7687 12.1545 89.5643C14.9204 96.0277 19.0923 101.793 24.3668 106.442C34.2844 115.131 47.2551 118.917 60.8857 117.075L60.9251 117.068Z" fill="#E2E1DF"/>
<path d="M61.362 103.247C42.2162 103.247 23.7335 100.266 14.7449 95.1615L14.8664 94.9481C27.3217 102.026 58.1349 105.004 83.5576 101.583L83.5904 101.829C76.2202 102.79 68.7946 103.264 61.362 103.247V103.247Z" fill="#E2E1DF"/>
<path d="M61.1589 117.84C49.9643 117.84 39.1636 116.097 33.9109 113.109L34.0324 112.896C41.3007 117.026 59.2877 118.762 74.1263 116.766L74.1592 117.009C69.8489 117.574 65.506 117.851 61.1589 117.84Z" fill="#E2E1DF"/>
<path d="M53.2245 118.946C49.7436 118.937 46.3462 117.88 43.4743 115.913C33.7242 109.399 27.9233 93.6317 27.9627 73.7308H28.2253C28.1859 93.5496 33.9474 109.242 43.6286 115.709C48.7926 119.156 54.7544 119.632 60.8704 117.085L60.9656 117.311C58.5193 118.364 55.8878 118.92 53.2245 118.946Z" fill="#E2E1DF"/>
<path d="M59.7046 119.655H59.6521C57.446 119.366 56.5005 97.7715 56.5399 76.4984H56.7861C56.7336 104.403 58.2043 119.219 59.6816 119.412C59.8261 119.412 60.2331 119.251 60.7846 117.17L61.021 117.233C60.5844 118.881 60.1675 119.655 59.7046 119.655Z" fill="#E2E1DF"/>
<path d="M67.5105 119.222C65.3372 119.222 63.0917 118.582 60.8396 117.305L60.5114 117.124L60.8725 117.075C67.2825 116.187 73.4864 114.179 79.2008 111.143C84.1482 103.379 87.0502 90.4604 87.0798 74.8996V74.7978H87.1881C97.8903 73.3599 106.557 71.0881 112.361 68.3403C113.65 63.2743 114.312 58.0692 114.331 52.8418V52.6317L114.515 52.7335C119.042 55.2843 121.13 58.1535 120.585 61.0096C120.066 63.6885 117.256 66.2393 112.591 68.4717C107.92 86.8558 95.4347 102.853 79.3781 111.333C77.5627 114.166 75.4748 116.316 73.157 117.662C71.4481 118.678 69.4982 119.216 67.5105 119.222V119.222ZM61.273 117.269C65.4127 119.514 69.3653 119.567 73.0224 117.452C75.2121 116.179 77.195 114.169 78.9316 111.56C73.4117 114.442 67.445 116.372 61.2828 117.269H61.273ZM87.3293 75.0079C87.2866 90.3259 84.46 103.086 79.6309 110.916C95.3888 102.453 107.637 86.7114 112.292 68.6095C106.488 71.3343 97.8969 73.5798 87.3391 75.0079H87.3293ZM114.577 53.0355C114.544 58.1429 113.9 63.228 112.66 68.1828C117.141 66.0095 119.84 63.5473 120.339 60.9604C120.867 58.2586 118.875 55.5174 114.581 53.0355H114.577Z" fill="#E2E1DF"/>
<path d="M83.5973 101.829L83.5645 101.583C100.212 99.3441 111.17 94.7808 112.162 89.6694C112.618 87.309 110.849 84.919 107.034 82.7523L107.159 82.5389C111.068 84.7615 112.884 87.2433 112.411 89.7186C111.39 94.9351 100.353 99.5739 83.5973 101.829Z" fill="#E2E1DF"/>
<path d="M74.1484 117.009L74.1156 116.766C83.8231 115.453 90.2018 112.827 90.7795 109.846C91.0422 108.493 90.0179 107.115 87.8249 105.86L87.9464 105.647C90.2444 106.96 91.3212 108.424 91.0356 109.895C90.4283 112.965 83.961 115.689 74.1484 117.009Z" fill="#E2E1DF"/>
<path d="M68.7943 118.06C66.1388 118.056 63.4893 117.807 60.8793 117.318L60.9252 117.075C72.9636 119.317 84.5784 116.418 93.6359 108.9C104.318 100.037 110.461 85.5919 110.49 69.2399H110.737C110.707 85.6543 104.532 100.181 93.7902 109.088C86.777 114.932 77.9236 118.11 68.7943 118.06V118.06Z" fill="#E2E1DF"/>
<path d="M62.301 117.334C61.8349 117.334 61.3687 117.334 60.8992 117.334V117.088C77.1298 117.446 92.2935 111.56 103.606 100.516C114.315 90.0567 120.231 76.1405 120.257 61.3314H120.503C120.477 76.2095 114.535 90.188 103.777 100.693C92.7531 111.451 78.0655 117.334 62.301 117.334Z" fill="#E2E1DF"/>
<path d="M61.0741 119.672C59.7281 119.672 58.5791 119.619 57.9783 119.593C57.1182 119.553 55.1419 119.402 53.809 119.232C52.4762 119.061 52.4959 119.061 50.6246 118.756C50.2734 118.7 49.8597 118.618 49.4559 118.536L48.9274 118.431C46.5144 117.929 44.1343 117.282 41.8002 116.491C40.4411 116.008 38.8456 115.394 37.7262 114.931C36.784 114.537 35.5529 113.973 34.6698 113.526C33.3041 112.833 31.5839 111.885 30.402 111.189C29.2202 110.493 27.8874 109.629 26.9977 108.986C24.4584 107.216 22.0581 105.255 19.818 103.119C18.7544 102.102 17.5528 100.867 16.7518 99.971C15.7965 98.9041 14.4538 97.3086 13.4853 96.0316C11.553 93.4874 9.82623 90.7935 8.32133 87.9753C6.93194 85.2298 5.69997 82.4074 4.63137 79.5219C4.05154 77.9083 3.55948 76.2644 3.15735 74.5976C2.9177 73.6554 2.69118 72.5031 2.47122 71.3935C2.37274 70.8912 2.27753 70.4086 2.18561 69.9654C1.86032 68.2499 1.64649 66.5151 1.54545 64.7719L1.52903 64.5092C1.37317 62.6061 1.31947 60.696 1.36817 58.7872C1.39115 58.4031 1.41085 57.9829 1.43055 57.5495C1.48636 56.3611 1.55201 55.0118 1.66363 53.9383C1.82245 52.1902 2.07671 50.4521 2.42526 48.7317C2.50405 48.4034 2.58284 48.0226 2.6682 47.6418C2.92098 46.4796 3.20987 45.1665 3.49877 44.1389C3.94524 42.5566 4.59197 40.5573 5.11395 39.1621C5.63593 37.7668 6.33846 36.086 6.89984 34.8943C7.31677 34.0079 8.39356 31.7788 9.36529 30.1637C10.859 27.6752 13.0356 24.6156 14.4439 22.7509C15.199 21.766 16.2692 20.5908 17.2147 19.5665C17.543 19.2382 17.8286 18.9099 18.1011 18.5816C19.0871 17.5219 20.1305 16.5169 21.2264 15.5712C22.6643 14.3204 24.6439 12.7676 26.0063 11.7105C27.2803 10.7468 28.61 9.85887 29.9884 9.0514C31.748 8.01729 34.1839 6.71398 36.0453 5.81118C37.1451 5.27607 38.8259 4.5801 40.5429 3.94979C41.8725 3.45735 43.619 2.89598 44.8829 2.55127C46.9451 1.96892 49.0371 1.4977 51.1499 1.13963C52.2694 0.936092 54.5017 0.63735 56.153 0.509317C57.325 0.420679 58.2442 0.364871 58.8877 0.348456C60.6801 0.302496 60.8574 0.299213 62.768 0.348456C63.0208 0.348456 65.3156 0.404265 68.2209 0.758817C69.928 0.965639 71.3495 1.2217 71.4086 1.23484C71.9437 1.33332 72.6988 1.47449 73.2667 1.59267C73.6837 1.68131 74.1958 1.79949 74.6685 1.92096L75.2397 2.05228C75.8536 2.19344 76.7039 2.42324 77.7643 2.73183C78.3486 2.90583 79.1562 3.16189 80.2264 3.51645C81.6151 3.97277 83.2172 4.58667 84.3071 5.0791C85.1147 5.4435 86.0076 5.86699 86.8907 6.30362C88.0879 6.84858 89.261 7.44716 90.41 8.09936L90.4822 8.14203C92.2726 9.16288 94.0093 10.2751 95.6856 11.4742C96.8477 12.354 98.6008 13.6836 99.8384 14.7275C100.301 15.1182 101.9 16.4839 103.029 17.6821L103.243 17.9053C104.283 18.9986 105.58 20.3577 106.526 21.4509C107.343 22.4029 108.456 23.8178 109.296 24.9701C110.137 26.1224 111.266 27.8394 112.11 29.1952C113.003 30.6594 113.833 32.1498 114.326 33.1938C114.923 34.4577 115.829 36.365 116.417 37.8095C116.86 38.9027 117.445 40.5409 117.98 42.1922C118.841 44.9002 119.5 47.6688 119.949 50.4749C120.424 53.6642 120.678 56.8826 120.708 60.1069C120.708 61.6827 120.603 63.8133 120.465 65.4055C120.37 66.5052 120.169 67.8808 119.992 69.0954C119.94 69.4664 119.887 69.8242 119.841 70.1525C119.56 71.8655 119.191 73.5628 118.735 75.2377C118.406 76.5246 117.861 78.2777 117.359 79.7057C116.857 81.1338 116.122 82.9886 115.435 84.5119C115.048 85.3786 114.523 86.393 114.017 87.3779C113.794 87.8112 113.577 88.2281 113.387 88.6089C112.549 90.1593 111.627 91.6629 110.626 93.1131C110.107 93.8977 109.431 94.8037 108.778 95.6803C108.499 96.0545 108.233 96.4124 107.993 96.7439C106.867 98.2013 105.662 99.5953 104.382 100.92C103.377 101.993 102.159 103.192 101.283 103.973C100.003 105.112 98.1609 106.632 96.5917 107.85C95.5149 108.687 94.0409 109.659 93.2595 110.164C92.3403 110.755 91.1059 111.478 90.1112 112.052L89.8092 112.226C87.823 113.36 85.7595 114.353 83.6341 115.197C81.8187 115.906 80.4398 116.408 79.4221 116.74C78.1451 117.154 76.392 117.649 75.0526 117.974C73.6607 118.303 72.0258 118.654 70.8866 118.841L70.7323 118.864C70.1644 118.959 69.4586 119.071 68.9136 119.14C67.9287 119.265 66.6616 119.396 65.8769 119.468C65.8113 119.468 64.1797 119.629 61.8324 119.665L61.0741 119.672ZM60.9066 0.604521C60.3486 0.604521 59.8528 0.604521 58.8811 0.640633C58.2409 0.657048 57.325 0.712856 56.1596 0.801494C54.5181 0.929527 52.2924 1.22499 51.1795 1.42853C49.0772 1.78775 46.9952 2.25675 44.942 2.8336C43.6813 3.16189 41.9447 3.7364 40.6184 4.22555C38.9113 4.85586 37.237 5.5387 36.1471 6.0771C34.289 6.97989 31.8629 8.27663 30.1066 9.30746C28.737 10.1036 27.416 10.9806 26.1507 11.9338C24.7883 12.9909 22.8153 14.5404 21.3807 15.7879C20.2924 16.7271 19.2567 17.7255 18.2783 18.7786L17.3887 19.7635C16.4465 20.7812 15.3828 21.9367 14.6343 22.9282C13.2293 24.7896 11.0593 27.8525 9.56883 30.318C8.60366 31.9266 7.53015 34.1491 7.11651 35.0289C6.55842 36.2042 5.86245 37.8686 5.33719 39.2671C4.81192 40.6656 4.17176 42.6485 3.72857 44.2243C3.44296 45.2452 3.15406 46.5584 2.90128 47.714C2.81921 48.0948 2.73714 48.4658 2.65835 48.8039C2.3127 50.5158 2.05955 52.2451 1.9 53.9843C1.79166 55.0414 1.72601 56.3841 1.6702 57.5692C1.6505 58.0058 1.6308 58.4261 1.60782 58.8102C1.55974 60.7091 1.61234 62.6093 1.7654 64.5027L1.78182 64.7653C1.88454 66.4975 2.09837 68.2213 2.42198 69.926C2.5139 70.3659 2.60911 70.8518 2.70759 71.3541C2.92426 72.4637 3.15078 73.6094 3.39043 74.545C3.78956 76.2019 4.27833 77.8359 4.8546 79.4398C5.80336 81.9217 7.21171 85.3983 8.53144 87.8637C10.0284 90.6735 11.7499 93.3578 13.679 95.8904C14.6245 97.1543 15.977 98.7432 16.9291 99.8069C17.7235 100.697 18.9218 101.928 19.9789 102.942C22.2127 105.067 24.604 107.021 27.1323 108.786C28.0187 109.422 29.3482 110.286 30.5202 110.975C31.6922 111.665 33.4256 112.617 34.788 113.306C35.6678 113.753 36.889 114.314 37.8279 114.705C38.9376 115.164 40.533 115.775 41.8889 116.257C44.211 117.047 46.5791 117.695 48.9799 118.198L49.5117 118.303C49.9123 118.381 50.3259 118.464 50.6706 118.519C52.5254 118.825 52.5254 118.825 53.8452 118.995C55.1649 119.166 57.128 119.324 57.9882 119.353C58.7038 119.383 60.1811 119.448 61.8423 119.425C64.1797 119.389 65.8014 119.238 65.8671 119.232C66.6484 119.156 67.9123 119.028 68.8972 118.903C69.4356 118.835 70.1414 118.72 70.7061 118.628L70.8604 118.605C71.993 118.418 73.6213 118.079 75.0099 117.741C76.3395 117.413 78.0893 116.924 79.3598 116.51C80.3709 116.182 81.7464 115.68 83.5586 114.974C85.6719 114.132 87.7242 113.145 89.7009 112.019L89.9996 111.845C90.9845 111.271 92.2254 110.552 93.1413 109.964C93.7651 109.557 95.3442 108.526 96.4538 107.666C98.0197 106.451 99.8548 104.931 101.132 103.799C102.005 103.021 103.217 101.829 104.215 100.762C105.484 99.4449 106.679 98.0573 107.793 96.6061C108.033 96.2778 108.302 95.9167 108.581 95.5457C109.237 94.6692 109.894 93.7631 110.419 92.985C111.405 91.5427 112.313 90.0491 113.141 88.5105C113.331 88.1296 113.548 87.7094 113.771 87.2761C114.277 86.2912 114.799 85.2867 115.183 84.4265C115.869 82.8901 116.621 81.0123 117.103 79.6401C117.586 78.2678 118.141 76.4491 118.469 75.1885C118.923 73.5233 119.291 71.8358 119.572 70.1328C119.618 69.8045 119.67 69.4434 119.723 69.0757C119.9 67.8644 120.097 66.4888 120.192 65.3956C120.33 63.81 120.425 61.6892 120.435 60.1167C120.404 56.8988 120.148 53.6869 119.67 50.5044C119.229 47.712 118.58 44.9565 117.727 42.2611C117.192 40.6197 116.611 38.9782 116.168 37.8949C115.583 36.457 114.68 34.5529 114.083 33.2988C113.594 32.268 112.77 30.7808 111.877 29.3232C111.053 27.9707 109.927 26.28 109.08 25.1146C108.233 23.9491 107.133 22.5572 106.319 21.6117C105.383 20.5218 104.09 19.166 103.052 18.0761L102.839 17.8528C101.716 16.6743 100.127 15.3184 99.6677 14.9278C98.4334 13.8904 96.6836 12.5608 95.5247 11.6843C93.8537 10.4915 92.1236 9.38376 90.341 8.36527L90.2754 8.32916C89.2905 7.81046 88.0463 7.16373 86.7758 6.53999C78.9527 2.97148 70.1775 1.72727 61.1693 2.92881H61.143L61.1102 2.68587C68.1578 1.69231 75.3386 2.29707 82.1207 4.45535C81.4641 4.20585 80.778 3.96292 80.1509 3.75281C79.0807 3.39826 78.2764 3.14219 77.6953 2.97148C76.6383 2.66289 75.7946 2.43637 75.1839 2.29521L74.6127 2.16389C74.1433 2.05556 73.6278 1.93409 73.2142 1.8356C72.6495 1.71414 71.901 1.57297 71.3659 1.47777C71.3036 1.47777 69.8919 1.20857 68.1914 1.00175C65.2992 0.650481 63.0143 0.597956 62.7615 0.594673C61.8817 0.604522 61.3827 0.604521 60.9066 0.604521Z" fill="#E2E1DF"/>
<path d="M114.582 53.0323L114.398 52.9305C99.9532 44.7233 64.2681 41.2795 34.8173 45.242L34.6762 45.2617V45.1205C34.7156 23.7981 40.152 7.40997 48.8615 2.35432C52.6303 0.16463 56.8751 0.282814 61.1396 2.68261C74.8423 0.860602 87.8459 4.66219 97.8226 13.4078C103.126 18.0783 107.321 23.8733 110.101 30.3705C113.098 37.2646 114.608 44.8152 114.595 52.8386L114.582 53.0323ZM60.5388 43.3543C82.5801 43.3543 103.873 46.7652 114.335 52.6121C114.335 44.7036 112.819 37.2481 109.864 30.4526C107.095 23.9892 102.921 18.2239 97.6453 13.5752C87.7277 4.88542 74.7603 1.10025 61.1297 2.94195H61.0903L61.0542 2.91897C56.7864 0.502768 52.7354 0.381299 48.983 2.55785C40.372 7.56754 34.9881 23.8113 34.9224 44.9793C43.4164 43.8772 51.9736 43.3343 60.5388 43.3543V43.3543Z" fill="#E2E1DF"/>
<path d="M87.9956 7.12104C80.7273 2.99116 62.7371 1.26108 47.8984 3.25051L47.8656 3.00758C62.7502 1.00501 80.8061 2.75479 88.1171 6.90765L87.9956 7.12104Z" fill="#E2E1DF"/>
<path d="M107.142 25.0686C94.6869 18.0038 63.8737 15.0164 38.4543 18.4339L38.4215 18.191C63.8836 14.7669 94.769 17.7576 107.264 24.8552L107.142 25.0686Z" fill="#E2E1DF"/>
<path d="M94.0568 46.2892H93.8106C93.8467 26.4704 88.0885 10.7782 78.404 4.30763C73.24 0.860598 67.2782 0.368164 61.1622 2.9321L61.0539 2.70558C67.252 0.125231 73.2925 0.607817 78.5287 4.10409C88.3019 10.6173 94.0929 26.3883 94.0568 46.2892Z" fill="#E2E1DF"/>
<path d="M65.4786 43.525H65.2324C65.2816 15.6204 63.8141 0.801442 62.3336 0.611034C62.1891 0.591337 61.782 0.768612 61.2338 2.84996L60.9941 2.78759C61.4472 1.07064 61.8838 0.29916 62.3664 0.364818C64.5692 0.653712 65.518 22.2486 65.4786 43.525Z" fill="#E2E1DF"/>
<path d="M7.68034 67.4081L7.4965 67.3063C2.97596 64.7358 0.878197 61.8666 1.42972 59.0104C1.9517 56.3316 4.76185 53.7808 9.42684 51.5452C14.1082 33.1511 26.5832 17.1635 42.6365 8.68375C44.452 5.85062 46.5399 3.70033 48.874 2.35434C52.6526 0.158092 56.9105 0.28284 61.1882 2.71218L61.5164 2.89274L61.152 2.94198C54.7427 3.82797 48.5396 5.83605 42.827 8.87416C37.8764 16.6382 34.9743 29.5564 34.948 45.1205V45.2289H34.843C24.1375 46.6668 15.4739 48.9385 9.66649 51.6863C8.37782 56.7524 7.71629 61.9575 7.69676 67.1848L7.68034 67.4081ZM9.35133 51.8373C4.87019 54.0106 2.17493 56.4728 1.67265 59.0597C1.14739 61.7648 3.1401 64.5027 7.43741 66.9879C7.46984 61.8795 8.11237 56.7933 9.35133 51.8373V51.8373ZM42.3772 9.10068C26.6193 17.564 14.3676 33.3087 9.71245 51.4106C15.5264 48.6858 24.1178 46.4403 34.6624 45.0122C34.7182 29.6942 37.5481 16.9304 42.3772 9.10068ZM54.5239 1.01821C52.5706 1.0305 50.6565 1.56797 48.9824 2.5743C46.7927 3.84806 44.8131 5.85719 43.0732 8.4835C48.5922 5.59117 54.5602 3.65214 60.7253 2.74829C58.8314 1.66021 56.6945 1.06532 54.5108 1.01821H54.5239Z" fill="#E2E1DF"/>
<path d="M34.0815 14.3729C31.7835 13.0598 30.7067 11.5923 30.9923 10.1249C31.5898 7.05537 38.0538 4.32729 47.8664 3.00757L47.8992 3.2505C38.195 4.56366 31.8131 7.18997 31.2353 10.1708C30.9726 11.5267 32.0002 12.9055 34.1899 14.1563L34.0815 14.3729Z" fill="#E2E1DF"/>
<path d="M14.8598 37.4813C10.9466 35.2588 9.13442 32.7769 9.60716 30.3016C10.6183 25.0851 21.6554 20.453 38.4145 18.191L38.4473 18.434C21.8031 20.6729 10.8448 25.2263 9.84025 30.3476C9.38393 32.708 11.1534 35.1012 14.9681 37.2646L14.8598 37.4813Z" fill="#E2E1DF"/>
<path d="M11.5248 50.7803H11.2785C11.3081 34.3658 17.4865 19.839 28.2248 10.9293C37.3381 3.37861 49.0252 0.446992 61.1358 2.69905L61.0931 2.94199C49.0547 0.703059 37.4399 3.59857 28.3824 11.1164C17.6999 19.9736 11.5543 34.438 11.5248 50.7803Z" fill="#E2E1DF"/>
<path d="M1.75131 58.7117H1.5051C1.53136 43.8337 7.47339 29.8518 18.2478 19.3466C29.6066 8.25698 44.8392 2.35435 61.1289 2.70562V2.95183C44.8655 2.5743 29.715 8.4835 18.4054 19.514C7.69334 29.9733 1.77758 43.8895 1.75131 58.7117Z" fill="#E2E1DF"/>
<path d="M61.4777 76.6657C39.3051 76.6657 17.9006 73.2154 7.49716 67.3062L7.43478 67.2701V67.1979C7.49388 35.6034 31.5673 6.66799 61.0969 2.69897H61.1396L61.1757 2.71867C75.6631 10.9489 87.3994 43.3313 87.3403 74.9061V75.0145H87.2353C78.6952 76.1323 70.0906 76.6839 61.4777 76.6657V76.6657ZM7.681 67.1257C22.1257 75.2902 57.709 78.7241 87.0941 74.7912C87.1269 43.3576 75.4727 11.1623 61.0903 2.94847C31.7183 6.92077 7.7762 35.692 7.681 67.1257Z" fill="#E2E1DF"/>
<path d="M61.3429 19.1003C50.1483 19.1003 39.3476 17.3571 34.0949 14.3729L34.2164 14.1562C41.4847 18.2861 59.4717 20.0228 74.3136 18.0268L74.3464 18.2697C70.0351 18.8341 65.691 19.1116 61.3429 19.1003V19.1003Z" fill="#E2E1DF"/>
<path d="M61.4709 45.5801C42.3251 45.5801 23.8425 42.5993 14.8539 37.4977L14.9754 37.281C27.4307 44.3589 58.2439 47.3365 83.6633 43.9157L83.6961 44.1619C76.327 45.1233 68.9025 45.5971 61.4709 45.5801V45.5801Z" fill="#E2E1DF"/>
<path d="M28.2251 73.7309H27.9789C28.0216 42.1528 42.8701 10.289 61.054 2.70557L61.1492 2.93208C43.0507 10.4827 28.2645 42.2414 28.2251 73.7309Z" fill="#E2E1DF"/>
<path d="M56.7861 76.4952H56.5399C56.5957 44.9532 58.5949 11.8879 60.9947 2.78772L61.2344 2.85009C58.8379 11.9338 56.8419 44.9696 56.7861 76.4952Z" fill="#E2E1DF"/>
<path d="M87.0939 75.0407V74.8996C87.153 43.4035 75.4725 11.1097 61.0541 2.9255L60.7258 2.74494L61.0869 2.69898C74.7897 0.857283 87.826 4.66872 97.7994 13.3914C103.103 18.0618 107.298 23.8569 110.077 30.354C113.065 37.2218 114.578 44.7561 114.572 52.7499C119.05 55.3106 121.137 58.1667 120.576 61.0097C119.407 67.0436 106.627 72.4111 87.2252 75.021L87.0939 75.0407ZM61.4907 2.90252C75.8106 11.4052 87.3631 43.4626 87.3402 74.765C106.555 72.1649 119.184 66.886 120.343 60.9768C120.875 58.2323 118.82 55.455 114.398 52.9436L114.335 52.9075V52.8353C114.335 44.848 112.845 37.3236 109.864 30.4657C107.095 24.0023 102.921 18.237 97.6451 13.5883C87.8162 4.9609 74.9866 1.17572 61.4907 2.90252Z" fill="#E2E1DF"/>
<path d="M74.3325 18.2698L74.2996 18.0269C84.0038 16.7137 90.3858 14.0874 90.9636 11.1065C91.2262 9.75398 90.2019 8.37517 88.009 7.1211L88.1304 6.90771C90.4285 8.22087 91.5052 9.68504 91.2196 11.1558C90.5992 14.2253 84.145 16.9501 74.3325 18.2698Z" fill="#E2E1DF"/>
<path d="M83.7063 44.1455L83.6735 43.8993C100.324 41.6603 111.283 37.0971 112.274 31.9857C112.73 29.6253 110.961 27.2353 107.146 25.0686L107.268 24.8552C111.181 27.0777 112.993 29.5596 112.52 32.0349C111.499 37.2514 100.449 41.8901 83.7063 44.1455Z" fill="#E2E1DF"/>
<path d="M110.736 69.2399H110.49C110.549 37.7602 88.3898 8.02054 61.0926 2.94191L61.1353 2.69897C88.5441 7.7973 110.796 37.6486 110.736 69.2399Z" fill="#E2E1DF"/>
<path d="M120.51 61.3184H120.264C120.323 29.8519 93.7871 3.66425 61.1125 2.94202V2.6958C93.925 3.42132 120.569 29.7173 120.51 61.3184Z" fill="#E2E1DF"/>
<path d="M60.876 117.324L60.8399 117.305C46.3558 109.074 34.6161 76.6921 34.6752 45.1205V45.0122H34.7836C64.2771 41.0432 100.047 44.5066 114.518 52.727L114.581 52.7631V52.8353C114.522 84.4265 90.4482 113.362 60.9187 117.331L60.876 117.324ZM34.9215 45.2288C34.8919 76.6592 46.5429 108.855 60.9252 117.068C90.2972 113.093 114.236 84.3182 114.335 52.8944C99.88 44.7298 64.3066 41.3124 34.9215 45.2288Z" fill="#E2E1DF"/>
<path d="M107.034 82.7522C94.5791 75.6776 63.7659 72.7 38.3465 76.1175L38.3137 75.8746C63.7791 72.4505 94.6612 75.4412 107.159 82.5388L107.034 82.7522Z" fill="#E2E1DF"/>
<path d="M87.8117 105.86C80.5434 101.731 62.5564 99.9939 47.7145 101.99L47.6816 101.747C62.5663 99.7444 80.6254 101.494 87.9331 105.647L87.8117 105.86Z" fill="#E2E1DF"/>
<path d="M60.9487 117.311L60.8535 117.085C78.9685 109.534 93.7513 77.7754 93.8104 46.2892H94.0567C93.9976 77.8673 79.1458 109.728 60.9487 117.311Z" fill="#E2E1DF"/>
<path d="M61.0207 117.229L60.7844 117.167C63.1776 108.083 65.1736 75.0473 65.2327 43.525H65.4789C65.4198 75.067 63.4205 108.129 61.0207 117.229Z" fill="#E2E1DF"/>
<path d="M54.1985 117.774C42.994 117.774 32.5315 113.923 24.206 106.612C18.9025 101.942 14.7079 96.1468 11.928 89.6496C8.94062 82.7851 7.43049 75.2508 7.43377 67.257C2.95591 64.6963 0.867995 61.8402 1.42937 58.9973C2.60136 52.9633 15.3816 47.5925 34.7835 44.9859L34.9214 44.9662V45.1073C34.8623 76.6001 46.5461 108.887 60.9613 117.078L61.2896 117.259L60.9284 117.305C58.6982 117.612 56.4498 117.769 54.1985 117.774V117.774ZM34.6752 45.2518C15.4604 47.8518 2.83116 53.1307 1.6723 59.0399C1.14047 61.7844 3.19556 64.5618 7.61761 67.0732L7.67999 67.1093V67.1815C7.67999 75.1688 9.17042 82.6931 12.1546 89.5478C14.9205 96.0113 19.0924 101.777 24.3669 106.425C34.1992 115.039 47.0188 118.825 60.5279 117.104C46.208 108.612 34.6522 76.5607 34.6752 45.2518Z" fill="#E2E1DF"/>
<path d="M14.7648 95.1517C10.8549 92.9325 9.03942 90.4473 9.51216 87.9753C10.5233 82.7588 21.5636 78.1267 38.3195 75.8647L38.3523 76.1077C21.7015 78.3466 10.7432 82.9131 9.75509 88.0213C9.29549 90.3817 11.0682 92.7749 14.8797 94.9383L14.7648 95.1517Z" fill="#E2E1DF"/>
<path d="M33.9011 113.109C31.6031 111.796 30.5263 110.332 30.8086 108.864C31.4061 105.792 37.8701 103.067 47.6827 101.747L47.7155 101.99C38.0113 103.303 31.6293 105.946 31.0515 108.91C30.7889 110.266 31.8165 111.642 34.0061 112.896L33.9011 113.109Z" fill="#E2E1DF"/>
<path d="M60.8798 117.318C33.4775 112.223 11.2196 82.3681 11.2787 50.7802H11.5249C11.4658 82.2565 33.6253 111.996 60.9258 117.075L60.8798 117.318Z" fill="#E2E1DF"/>
<path d="M60.8992 117.321C28.09 116.596 1.4461 90.2997 1.50519 58.7019H1.75141C1.69232 90.1684 28.2279 116.353 60.9058 117.075L60.8992 117.321Z" fill="#E2E1DF"/>
<path d="M67.5106 119.222C65.1717 119.177 62.8849 118.523 60.8758 117.324C58.6625 117.623 56.4318 117.773 54.1984 117.774C42.9939 117.774 32.5314 113.923 24.206 106.612C18.9024 101.942 14.7078 96.1468 11.928 89.6496C8.93068 82.7556 7.42055 75.2049 7.43368 67.1848V66.9747L7.61424 67.0765C22.059 75.2837 57.7472 78.7275 87.198 74.765L87.3359 74.7453V74.8865C87.2965 96.2089 81.8633 112.594 73.1538 117.649C71.4471 118.669 69.4984 119.212 67.5106 119.222V119.222ZM60.9251 117.068L60.9612 117.091C65.2289 119.508 69.28 119.629 73.0324 117.452C81.6467 112.449 87.0306 96.2056 87.093 75.0408C57.7505 78.9606 22.2461 75.5431 7.6799 67.4081C7.6799 75.3165 9.19659 82.7687 12.1545 89.5643C14.9204 96.0277 19.0923 101.793 24.3668 106.442C34.2844 115.131 47.2551 118.917 60.8857 117.075L60.9251 117.068Z" fill="#E2E1DF"/>
<path d="M61.362 103.247C42.2162 103.247 23.7335 100.266 14.7449 95.1615L14.8664 94.9481C27.3217 102.026 58.1349 105.004 83.5576 101.583L83.5904 101.829C76.2202 102.79 68.7946 103.264 61.362 103.247V103.247Z" fill="#E2E1DF"/>
<path d="M61.1589 117.84C49.9643 117.84 39.1636 116.097 33.9109 113.109L34.0324 112.896C41.3007 117.026 59.2877 118.762 74.1263 116.766L74.1592 117.009C69.8489 117.574 65.506 117.851 61.1589 117.84Z" fill="#E2E1DF"/>
<path d="M53.2245 118.946C49.7436 118.937 46.3462 117.88 43.4743 115.913C33.7242 109.399 27.9233 93.6317 27.9627 73.7308H28.2253C28.1859 93.5496 33.9474 109.242 43.6286 115.709C48.7926 119.156 54.7544 119.632 60.8704 117.085L60.9656 117.311C58.5193 118.364 55.8878 118.92 53.2245 118.946Z" fill="#E2E1DF"/>
<path d="M59.7046 119.655H59.6521C57.446 119.366 56.5005 97.7715 56.5399 76.4984H56.7861C56.7336 104.403 58.2043 119.219 59.6816 119.412C59.8261 119.412 60.2331 119.251 60.7846 117.17L61.021 117.233C60.5844 118.881 60.1675 119.655 59.7046 119.655Z" fill="#E2E1DF"/>
<path d="M67.5105 119.222C65.3372 119.222 63.0917 118.582 60.8396 117.305L60.5114 117.124L60.8725 117.075C67.2825 116.187 73.4864 114.179 79.2008 111.143C84.1482 103.379 87.0502 90.4604 87.0798 74.8996V74.7978H87.1881C97.8903 73.3599 106.557 71.0881 112.361 68.3403C113.65 63.2743 114.312 58.0692 114.331 52.8418V52.6317L114.515 52.7335C119.042 55.2843 121.13 58.1535 120.585 61.0096C120.066 63.6885 117.256 66.2393 112.591 68.4717C107.92 86.8558 95.4347 102.853 79.3781 111.333C77.5627 114.166 75.4748 116.316 73.157 117.662C71.4481 118.678 69.4982 119.216 67.5105 119.222V119.222ZM61.273 117.269C65.4127 119.514 69.3653 119.567 73.0224 117.452C75.2121 116.179 77.195 114.169 78.9316 111.56C73.4117 114.442 67.445 116.372 61.2828 117.269H61.273ZM87.3293 75.0079C87.2866 90.3259 84.46 103.086 79.6309 110.916C95.3888 102.453 107.637 86.7114 112.292 68.6095C106.488 71.3343 97.8969 73.5798 87.3391 75.0079H87.3293ZM114.577 53.0355C114.544 58.1429 113.9 63.228 112.66 68.1828C117.141 66.0095 119.84 63.5473 120.339 60.9604C120.867 58.2586 118.875 55.5174 114.581 53.0355H114.577Z" fill="#E2E1DF"/>
<path d="M83.5973 101.829L83.5645 101.583C100.212 99.3441 111.17 94.7808 112.162 89.6694C112.618 87.309 110.849 84.919 107.034 82.7523L107.159 82.5389C111.068 84.7615 112.884 87.2433 112.411 89.7186C111.39 94.9351 100.353 99.5739 83.5973 101.829Z" fill="#E2E1DF"/>
<path d="M74.1484 117.009L74.1156 116.766C83.8231 115.453 90.2018 112.827 90.7795 109.846C91.0422 108.493 90.0179 107.115 87.8249 105.86L87.9464 105.647C90.2444 106.96 91.3212 108.424 91.0356 109.895C90.4283 112.965 83.961 115.689 74.1484 117.009Z" fill="#E2E1DF"/>
<path d="M68.7943 118.06C66.1388 118.056 63.4893 117.807 60.8793 117.318L60.9252 117.075C72.9636 119.317 84.5784 116.418 93.6359 108.9C104.318 100.037 110.461 85.5919 110.49 69.2399H110.737C110.707 85.6543 104.532 100.181 93.7902 109.088C86.777 114.932 77.9236 118.11 68.7943 118.06V118.06Z" fill="#E2E1DF"/>
<path d="M62.301 117.334C61.8349 117.334 61.3687 117.334 60.8992 117.334V117.088C77.1298 117.446 92.2935 111.56 103.606 100.516C114.315 90.0567 120.231 76.1405 120.257 61.3314H120.503C120.477 76.2095 114.535 90.188 103.777 100.693C92.7531 111.451 78.0655 117.334 62.301 117.334Z" fill="#E2E1DF"/>
<path d="M60.9948 119.672H60.5483C59.7341 119.655 58.6967 119.626 57.9712 119.596C56.4053 119.531 54.6654 119.334 53.8315 119.238C52.5906 119.097 50.7981 118.792 50.6799 118.769C49.2322 118.5 48.1981 118.306 46.9539 117.991C46.2185 117.807 45.3814 117.594 44.7543 117.413C43.9303 117.177 42.9947 116.901 42.2987 116.658L41.9245 116.523C41.0939 116.235 40.0631 115.867 39.2982 115.565C37.9522 115.036 36.9575 114.613 36.2516 114.271C35.1749 113.746 33.1395 112.742 31.6326 111.904C30.3195 111.169 29.0063 110.381 28.1921 109.793C27.8934 109.58 27.5586 109.35 27.2073 109.114C26.3833 108.543 25.5297 107.955 24.8535 107.423C24.2461 106.947 22.1385 105.28 20.5529 103.812C19.719 103.041 18.4026 101.77 17.4407 100.723C16.5839 99.7905 14.9851 98.0145 13.8952 96.5733C11.8979 94.0106 10.1137 91.2888 8.56048 88.435C7.14047 85.7086 5.88418 82.9001 4.79828 80.0242C4.20197 78.3904 3.69349 76.7257 3.27502 75.0375C3.02552 74.1052 2.79244 72.9627 2.56592 71.8597C2.46415 71.3541 2.36238 70.8748 2.26718 70.4218C1.92762 68.7004 1.69844 66.9591 1.58105 65.2086C1.44974 63.4259 1.3611 61.3479 1.35782 59.9132C1.35782 58.8496 1.43004 57.5135 1.4957 56.3349C1.52196 55.8819 1.54494 55.4485 1.56464 55.0513C1.67958 53.0882 1.93853 51.1362 2.3394 49.211L2.54622 48.2524C2.79901 47.0443 3.0879 45.6754 3.38008 44.6051C3.79372 43.0753 4.41419 41.1056 4.92304 39.7038C5.41219 38.3545 6.11144 36.6343 6.66953 35.436C7.06019 34.5858 8.06804 32.4355 8.99382 30.8564C10.4055 28.4402 12.4999 25.4035 13.9871 23.3681C15.0296 22.0121 16.1395 20.7094 17.3127 19.4648C18.5503 18.116 19.8576 16.8329 21.2291 15.6205C22.0893 14.8819 25.0964 12.3376 27.6538 10.6043C28.9013 9.75727 30.7889 8.55901 32.345 7.73501L32.6142 7.59056C33.4743 7.13424 34.5478 6.5663 35.3882 6.16907C36.2287 5.77184 37.8603 5.02006 39.1012 4.54732L39.5641 4.36676C40.1222 4.15337 40.7525 3.90716 41.2646 3.73973C42.3709 3.37533 44.2192 2.75486 45.598 2.4036C48.0614 1.74512 50.5635 1.24077 53.0896 0.893465L53.106 1.01493L53.0896 0.893465C54.6063 0.689926 56.2674 0.529064 57.5346 0.463406C58.6541 0.404314 59.071 0.381334 60.1938 0.36492C61.3165 0.348505 62.4589 0.36492 62.7708 0.3879C63.5587 0.414163 64.3039 0.440426 65.3971 0.522498C66.4903 0.604571 67.0616 0.663663 68.204 0.794979C69.1889 0.913163 69.3235 0.93286 71.3326 1.26115C71.72 1.32352 72.1829 1.41544 72.5932 1.49752L73.0463 1.58615C74.1165 1.79298 76.1355 2.28869 77.2779 2.62355C78.834 3.07659 80.8234 3.73645 82.2351 4.26499C83.4169 4.70818 84.8121 5.29254 85.7904 5.75543C87.1036 6.37917 88.965 7.32793 90.4127 8.12239C90.9774 8.45068 91.5355 8.77897 92.0805 9.10725C92.7009 9.47822 93.305 9.84919 93.8138 10.1972C95.5341 11.3823 97.5366 12.8596 98.9154 13.9626C100.971 15.6041 103.485 18.1647 105.199 19.9441C106.514 21.3251 107.729 22.7973 108.836 24.3497L109.401 25.1606C110.215 26.3194 111.134 27.6359 111.811 28.7127C112.628 30.0003 113.379 31.3283 114.063 32.6915L114.345 33.2759C114.959 34.5496 115.721 36.1386 116.236 37.3795C116.751 38.6204 117.392 40.3669 117.835 41.7457C118.278 43.1246 118.843 45.1731 119.204 46.7292C119.581 48.3706 119.936 50.5373 120.074 51.4007C120.495 54.2835 120.701 57.1936 120.691 60.1069C120.614 63.3271 120.349 66.5399 119.896 69.7291C119.657 71.4408 119.302 73.1343 118.833 74.7979C118.708 75.2181 118.573 75.6908 118.435 76.1767C118.127 77.2535 117.808 78.3697 117.493 79.279C116.962 80.8917 116.342 82.4742 115.638 84.0195C115.461 84.3872 115.271 84.7943 115.071 85.2145C114.611 86.1994 114.086 87.2893 113.629 88.1395C112.874 89.5315 111.834 91.2878 111.039 92.5058C110.245 93.7237 109.22 95.1682 108.442 96.176C108.006 96.7374 106.473 98.6907 105.159 100.116C103.902 101.468 102.861 102.515 102.113 103.231C100.852 104.413 99.3028 105.762 98.1735 106.668C97.2904 107.374 95.9641 108.382 94.8906 109.101C93.4822 110.053 91.5716 111.225 90.2552 112.003C88.1197 113.199 85.9164 114.27 83.6566 115.21C82.8687 115.519 80.8595 116.297 79.2673 116.809C78.0231 117.21 76.2701 117.699 74.9044 118.03C73.5387 118.362 71.9038 118.687 70.7515 118.881C68.5356 119.238 67.7149 119.314 65.9191 119.481C65.5153 119.517 64.0315 119.642 61.8582 119.678L60.9948 119.672ZM60.9127 0.604571H60.1806C59.0612 0.620985 58.6475 0.643965 57.5346 0.703057C56.2674 0.768715 54.6161 0.929576 53.106 1.12983C50.5908 1.47622 48.0997 1.97949 45.6473 2.63668C44.2816 2.99452 42.43 3.60185 41.3237 3.94984C40.8181 4.11726 40.1911 4.3602 39.6363 4.57358L39.1734 4.75414C37.939 5.2236 36.3271 5.96881 35.4769 6.36932C34.6266 6.76984 33.5728 7.33121 32.7127 7.78425L32.4435 7.9287C30.8405 8.80073 29.2825 9.75288 27.7752 10.7815C25.2277 12.5116 22.2304 15.0493 21.3736 15.7814C20.0089 16.9863 18.7092 18.263 17.4801 19.6059C16.3112 20.8438 15.2056 22.14 14.1676 23.4896C12.6838 25.5184 10.5992 28.5452 9.19079 30.9549C8.27158 32.5241 7.26373 34.6645 6.87635 35.5148C6.32155 36.7164 5.62557 38.43 5.13642 39.7826C4.64727 41.1351 4.01368 43.141 3.60003 44.6642C3.31114 45.7279 3.02224 47.0936 2.76946 48.2951C2.69724 48.6234 2.63158 48.9517 2.56592 49.257C2.16457 51.1687 1.90669 53.1077 1.79444 55.0579C1.77475 55.4551 1.75176 55.8884 1.7255 56.3415C1.65984 57.5167 1.58762 58.8496 1.58762 59.9034C1.58762 61.3347 1.67954 63.4062 1.81085 65.1823C1.92759 66.9217 2.15456 68.652 2.49041 70.3627C2.5889 70.8059 2.68739 71.295 2.79244 71.8039C3.01568 72.9036 3.24876 74.0395 3.49498 74.9686C3.91335 76.6475 4.42296 78.3023 5.02152 79.9257C6.10299 82.7917 7.35491 85.5905 8.77058 88.307C10.3184 91.1501 12.096 93.8621 14.0856 96.4157C15.1689 97.847 16.7611 99.6198 17.6147 100.546C18.57 101.586 19.8832 102.844 20.7137 103.622C22.2895 105.083 24.3938 106.747 24.9815 107.233C25.6545 107.761 26.5015 108.346 27.3255 108.914L28.3103 109.597C29.4125 110.352 30.552 111.051 31.7245 111.691C33.2281 112.525 35.2569 113.529 36.3206 114.051C37.0198 114.38 38.0113 114.813 39.3474 115.342C40.1222 115.644 41.1497 115.998 41.9737 116.297L42.3512 116.428C43.0407 116.671 43.973 116.944 44.7937 117.18C45.4175 117.357 46.2513 117.571 46.9834 117.754C48.2211 118.066 49.2519 118.26 50.6799 118.529C50.8145 118.556 52.5939 118.858 53.8282 118.995C54.6621 119.091 56.3954 119.288 57.9515 119.353C58.6771 119.383 59.7112 119.412 60.5253 119.429C60.9423 119.429 61.5102 119.429 61.8057 119.429C63.9724 119.393 65.4497 119.271 65.8502 119.232C67.6426 119.068 68.4568 118.989 70.6662 118.634C71.8152 118.447 73.4369 118.116 74.7993 117.787C76.1617 117.459 77.9082 116.97 79.1459 116.573C80.7315 116.061 82.7341 115.286 83.522 114.977C85.7706 114.043 87.9629 112.979 90.0877 111.789C91.4009 111.011 93.305 109.843 94.71 108.894C95.7704 108.178 97.0901 107.174 97.9732 106.471C99.1025 105.572 100.646 104.226 101.913 103.047C102.671 102.338 103.692 101.294 104.946 99.9448C106.259 98.5364 107.783 96.593 108.229 96.0316C109.004 95.0467 110.041 93.5596 110.813 92.3777C111.584 91.1959 112.641 89.4231 113.393 88.0279C113.849 87.1842 114.378 86.0844 114.828 85.116L115.399 83.921C116.098 82.3826 116.714 80.8079 117.244 79.2035C117.556 78.3007 117.871 77.1878 118.179 76.1143C118.317 75.6284 118.452 75.1557 118.577 74.7322C119.042 73.0836 119.395 71.4056 119.634 69.7094C120.083 66.5299 120.347 63.3269 120.425 60.1168C120.436 57.2166 120.231 54.3196 119.811 51.45C119.673 50.5931 119.319 48.4199 118.944 46.7981C118.583 45.2453 118.035 43.2526 117.582 41.8344C117.129 40.4162 116.502 38.7123 115.99 37.4845C115.478 36.2567 114.716 34.6678 114.102 33.3941L113.823 32.8097C113.142 31.4599 112.394 30.1451 111.581 28.8703C110.908 27.7967 109.992 26.4836 109.181 25.328L108.613 24.5171C107.515 22.9744 106.308 21.512 105.002 20.141C103.292 18.365 100.783 15.8175 98.7414 14.1793L98.2359 13.7821C108.327 22.7838 114.237 36.2009 114.565 51.3515C114.565 51.8045 114.581 52.2543 114.581 52.7106V52.8222C114.522 84.4135 90.4489 113.349 60.9193 117.318L60.8864 117.075C90.2978 113.135 114.276 84.2953 114.335 52.8222V52.7106C114.335 34.1951 106.003 18.1352 91.936 9.32064L91.3484 8.97266C90.9676 8.74614 90.6032 8.52947 90.2749 8.31608C88.8337 7.52818 86.992 6.57943 85.6788 5.95896C84.694 5.49936 83.3151 4.915 82.1431 4.4751C80.7381 3.94327 78.7519 3.28341 77.2188 2.83365C76.0796 2.50536 74.0738 2.01293 73.0102 1.80611L72.544 1.72404C72.1369 1.64525 71.6773 1.55333 71.3096 1.49423C69.2906 1.16594 69.1692 1.14296 68.1745 1.02806C67.0353 0.893465 66.5035 0.837656 65.3774 0.755583C64.2514 0.673511 63.5489 0.647249 62.7511 0.617703C62.5049 0.604571 61.7433 0.604571 60.9127 0.604571Z" fill="#E2E1DF"/>
<path d="M60.8763 117.64L60.8402 117.62C46.2806 109.344 34.4622 76.784 34.5312 45.0385V44.9236H34.6395C64.2971 40.9349 100.261 44.4147 114.814 52.681L114.877 52.7171V52.7894C114.817 84.548 90.5996 113.641 60.919 117.633L60.8763 117.64ZM34.7905 45.1468C34.761 76.7512 46.4776 109.124 60.9387 117.37C90.4847 113.375 114.548 84.4463 114.64 52.8419C100.097 44.6445 64.3365 41.1909 34.7905 45.1468Z" fill="#E2E1DF"/>
<path d="M87.973 106.113C80.6653 101.96 62.5766 100.204 47.6559 102.22L47.623 101.977C62.5897 99.9645 80.7474 101.724 88.0945 105.897L87.973 106.113Z" fill="#E2E1DF"/>
<path d="M107.29 82.8771C94.7656 75.7631 63.7817 72.7691 38.2211 76.2063L38.1883 75.9633C63.7948 72.5196 94.8477 75.5267 107.411 82.6637L107.29 82.8771Z" fill="#E2E1DF"/>
<path d="M60.9487 117.626L60.8535 117.4C79.067 109.807 93.9319 77.8739 93.991 46.2137H94.2372C94.1781 77.9658 79.2443 110 60.9487 117.626Z" fill="#E2E1DF"/>
<path d="M61.0205 117.544L60.7809 117.482C63.1905 108.349 65.1964 75.1327 65.2555 43.4331H65.5017C65.4426 75.1491 63.4335 108.395 61.0205 117.544Z" fill="#E2E1DF"/>
<path d="M54.1597 118.093C42.8929 118.093 32.3745 114.219 23.9998 106.881C18.6653 102.181 14.4481 96.3491 11.6562 89.8105C8.65233 82.9164 7.13236 75.3296 7.13892 67.2931C2.6348 64.7161 0.546883 61.8468 1.09841 58.9907C2.2901 52.937 15.1295 47.5498 34.6397 44.9235L34.7776 44.9038V45.045C34.7185 76.7117 46.4647 109.176 60.9619 117.413L61.2902 117.594L60.9291 117.64C58.6852 117.941 56.4238 118.093 54.1597 118.093V118.093ZM34.5281 45.1796C15.205 47.8059 2.49364 53.1077 1.34134 59.0531C0.80623 61.8107 2.87445 64.6044 7.32277 67.129L7.38514 67.1651V67.2472C7.36873 75.2771 8.88214 82.8442 11.8794 89.7382C14.6615 96.2377 18.8583 102.035 24.164 106.707C34.0488 115.368 46.9505 119.182 60.5253 117.446C46.1265 108.887 34.5084 76.6526 34.5314 45.1796H34.5281Z" fill="#E2E1DF"/>
<path d="M33.75 113.401C31.4323 112.088 30.3588 110.608 30.6444 109.134C31.2418 106.048 37.742 103.306 47.6103 101.98L47.6432 102.223C37.8831 103.536 31.4651 106.202 30.9004 109.183C30.6345 110.545 31.6686 111.931 33.8846 113.191L33.75 113.401Z" fill="#E2E1DF"/>
<path d="M14.4986 95.3553C10.5591 93.1229 8.7404 90.6279 9.22299 88.1329C10.2407 82.8803 21.3369 78.2219 38.1879 75.9567L38.2208 76.1996C21.478 78.4517 10.4606 83.0411 9.46264 88.1789C9.00304 90.5524 10.7758 92.9588 14.6201 95.1353L14.4986 95.3553Z" fill="#E2E1DF"/>
<path d="M60.8792 117.633C33.303 112.505 10.9465 82.506 11.0056 50.731H11.2518C11.1927 82.3813 33.4737 112.285 60.9219 117.39L60.8792 117.633Z" fill="#E2E1DF"/>
<path d="M60.8994 117.636C27.8965 116.907 1.11798 90.4671 1.17707 58.692H1.42329C1.36419 90.3292 28.0475 116.661 60.9027 117.387L60.8994 117.636Z" fill="#E2E1DF"/>
<path d="M67.5471 119.55C65.1953 119.504 62.8962 118.845 60.8763 117.64C47.1144 119.481 34.0222 115.67 24.0029 106.882C18.6683 102.182 14.4511 96.3491 11.6592 89.8105C8.64551 82.8869 7.12553 75.2837 7.14195 67.221V67.0109L7.32579 67.1126C21.8362 75.3593 57.7345 78.826 87.3429 74.8438L87.4841 74.8241V74.9653C87.4447 96.4026 81.9787 112.879 73.2232 117.971C71.5068 118.996 69.5464 119.542 67.5471 119.55ZM60.9255 117.384L60.9616 117.406C65.2294 119.836 69.3264 119.961 73.1083 117.768C81.7719 112.738 87.1854 96.4026 87.2477 75.1229C57.7411 79.0623 22.043 75.6252 7.39801 67.4475C7.39801 75.3986 8.92127 82.8935 11.8923 89.7285C14.6744 96.228 18.8711 102.025 24.1769 106.698C34.1503 115.437 47.1899 119.235 60.896 117.39L60.9255 117.384Z" fill="#E2E1DF"/>
<path d="M61.1592 118.155C49.9055 118.155 39.0358 116.405 33.7504 113.401L33.8719 113.188C41.1796 117.341 59.2683 119.097 74.189 117.078L74.2219 117.324C69.8907 117.888 65.527 118.166 61.1592 118.155V118.155Z" fill="#E2E1DF"/>
<path d="M61.3621 103.484C42.1145 103.484 23.5301 100.486 14.4988 95.3552L14.6203 95.1418C27.1445 102.259 58.1252 105.25 83.689 101.813L83.7186 102.056C76.306 103.024 68.8376 103.501 61.3621 103.484V103.484Z" fill="#E2E1DF"/>
<path d="M53.1746 119.271C49.6751 119.261 46.2594 118.199 43.3719 116.221C33.566 109.672 27.7355 93.8156 27.7717 73.8064H28.0179C27.9818 93.7335 33.7728 109.511 43.5098 116.014C48.7001 119.485 54.6979 119.954 60.8468 117.4L60.942 117.626C58.4874 118.684 55.8472 119.243 53.1746 119.271Z" fill="#E2E1DF"/>
<path d="M59.6973 119.984H59.6415C57.4255 119.695 56.4735 97.9882 56.5129 76.587H56.7591C56.7066 104.656 58.1872 119.54 59.6743 119.734C59.8319 119.764 60.2324 119.57 60.7806 117.482L61.0203 117.544C60.5837 119.202 60.1602 119.984 59.6973 119.984Z" fill="#E2E1DF"/>
<path d="M67.5466 119.55C65.3602 119.55 63.1016 118.894 60.8396 117.62L60.5114 117.439L60.8757 117.39C67.3208 116.5 73.5584 114.48 79.3026 111.425C84.2795 103.618 87.198 90.6312 87.2275 74.985V74.8766H87.3326C98.0971 73.4289 106.82 71.1473 112.65 68.3831C113.942 63.2887 114.604 58.0549 114.62 52.7992V52.5891L114.804 52.6909C119.351 55.2745 121.458 58.1602 120.903 61.0294C120.381 63.7247 117.555 66.282 112.864 68.5374C108.169 87.0299 95.612 103.106 79.47 111.632C77.6448 114.481 75.5306 116.642 73.2129 117.997C71.4967 119.012 69.5401 119.548 67.5466 119.55V119.55ZM61.2828 117.58C65.4455 119.839 69.4211 119.901 73.1012 117.764C75.3041 116.487 77.2968 114.481 79.0433 111.839C73.4901 114.743 67.485 116.686 61.2828 117.584V117.58ZM87.4836 75.0868C87.4409 90.4901 84.5979 103.32 79.7425 111.199C95.5857 102.686 107.906 86.8559 112.571 68.6556C106.738 71.3968 98.1004 73.6554 87.4836 75.09V75.0868ZM114.873 52.9929C114.841 58.1292 114.194 63.2431 112.946 68.2255C117.456 66.0424 120.168 63.5638 120.67 60.9638C121.199 58.2488 119.193 55.4945 114.873 52.9962V52.9929Z" fill="#E2E1DF"/>
<path d="M74.2211 117.324L74.1883 117.078C83.9483 115.765 90.3697 113.103 90.9474 110.122C91.2101 108.759 90.176 107.374 87.96 106.113L88.0815 105.897C90.3992 107.21 91.4727 108.69 91.1871 110.164C90.5995 113.254 84.0895 115.995 74.2211 117.324Z" fill="#E2E1DF"/>
<path d="M83.7053 102.046L83.6758 101.803C100.419 99.5508 111.433 94.9614 112.431 89.8236C112.89 87.4501 111.117 85.0437 107.276 82.8672L107.398 82.6538C111.337 84.8895 113.153 87.3845 112.674 89.8762C111.669 95.1255 100.57 99.7905 83.7053 102.046Z" fill="#E2E1DF"/>
<path d="M68.837 118.378C66.1672 118.375 63.5033 118.125 60.8793 117.633L60.922 117.39C73.026 119.642 84.7065 116.733 93.8132 109.183C104.555 100.27 110.733 85.7364 110.766 69.3022H111.012C110.979 85.8086 104.775 100.414 93.9708 109.353C86.9193 115.232 78.017 118.428 68.837 118.378Z" fill="#E2E1DF"/>
<path d="M62.3076 117.649C61.8381 117.649 61.3687 117.649 60.8992 117.649V117.403C77.2316 117.761 92.4708 111.845 103.843 100.739C114.614 90.2339 120.562 76.2324 120.585 61.3445H120.832C120.805 76.3013 114.831 90.3554 104.013 100.92C92.9271 111.734 78.1607 117.649 62.3076 117.649Z" fill="#E2E1DF"/>
<path d="M114.873 52.9929L114.689 52.8911C100.179 44.6445 64.2837 41.1778 34.672 45.1599L34.5309 45.1796V45.0384C34.5702 23.5979 40.0363 7.12106 48.795 2.03258C52.5835 -0.166951 56.8512 -0.0487675 61.1387 2.36087C74.8973 0.522455 87.9927 4.33061 98.0121 13.1189C103.346 17.8199 107.563 23.652 110.356 30.1899C113.369 37.1135 114.889 44.7134 114.876 52.7795L114.873 52.9929ZM60.5346 43.2624C82.7007 43.2624 104.102 46.693 114.63 52.5727C114.63 44.6182 113.104 37.1234 110.133 30.2917C107.35 23.7912 103.154 17.993 97.8479 13.3192C87.8745 4.58011 74.8414 0.785088 61.1321 2.62679H61.0894L61.0533 2.60709C56.7856 0.174469 52.6885 0.0530019 48.9066 2.24269C40.2562 7.27864 34.8427 23.6143 34.7902 44.8973C43.3266 43.789 51.9266 43.2429 60.5346 43.2624V43.2624Z" fill="#E2E1DF"/>
<path d="M107.399 24.8782C94.868 17.7609 63.8874 14.7702 38.3301 18.2074L38.2973 17.9611C63.9038 14.5174 94.9534 17.5245 107.52 24.6615L107.399 24.8782Z" fill="#E2E1DF"/>
<path d="M88.1441 6.84205C80.8364 2.68919 62.751 0.932847 47.827 2.95182L47.7941 2.70889C62.7608 0.696479 80.9185 2.45282 88.2656 6.62866L88.1441 6.84205Z" fill="#E2E1DF"/>
<path d="M94.2371 46.2138H93.9909C94.027 26.2866 88.236 10.5058 78.4989 4.00238C73.3087 0.532371 67.3141 0.0629175 61.162 2.62029L61.0668 2.39049C67.3043 -0.206278 73.371 0.282872 78.6368 3.79556C88.4428 10.3482 94.2732 26.2111 94.2371 46.2138Z" fill="#E2E1DF"/>
<path d="M65.5015 43.4331H65.2553C65.321 15.3775 63.8273 0.476476 62.3401 0.27622C62.1924 0.25324 61.7853 0.437082 61.2338 2.52828L60.9941 2.46591C61.4505 0.74239 61.8936 -0.0290889 62.3729 0.0300032C64.5889 0.325463 65.5409 22.0418 65.5015 43.4331Z" fill="#E2E1DF"/>
<path d="M7.38776 67.4475L7.20392 67.3457C2.65384 64.7621 0.546221 61.8764 1.10103 59.0072C1.62629 56.3119 4.44958 53.7546 9.14082 51.4992C13.8354 33.0034 26.3924 16.9271 42.5377 8.40144C44.3629 5.5519 46.4771 3.39176 48.7948 2.03592C52.5932 -0.170179 56.874 -0.0454302 61.1746 2.39704L61.5029 2.5776L61.1418 2.62684C54.6923 3.51566 48.45 5.53492 42.7018 8.59185C37.7249 16.3986 34.8229 29.3857 34.7769 45.0319V45.1403H34.6719C23.9073 46.588 15.1879 48.8696 9.3575 51.6338C8.06545 56.7282 7.40392 61.962 7.38776 67.2177V67.4475ZM9.0686 51.7914C4.56119 53.9745 1.84624 56.4531 1.34396 59.0531C0.815417 61.7714 2.82126 64.5257 7.14155 67.024C7.17362 61.8877 7.82057 56.7738 9.0686 51.7914V51.7914ZM42.275 8.8118C26.4285 17.3473 14.1078 33.161 9.42972 51.3646C15.2765 48.6234 23.9138 46.3648 34.5307 44.9302C34.5734 29.5236 37.4164 16.6907 42.275 8.8118ZM54.4874 0.69322C52.5214 0.700195 50.5935 1.23659 48.9065 2.24603C46.7036 3.52635 44.7109 5.52892 42.9644 8.15523C48.5201 5.26132 54.5247 3.32674 60.7249 2.43315C58.5888 1.27539 56.5096 0.695409 54.4874 0.69322Z" fill="#E2E1DF"/>
<path d="M14.6044 37.3728C10.6649 35.1372 8.84948 32.6422 9.33207 30.1505C10.3465 24.8979 21.4459 20.2394 38.297 17.9742L38.3298 18.2205C21.5871 20.4692 10.5697 25.062 9.57172 30.1997C9.11211 32.5732 10.8849 34.9763 14.7259 37.1529L14.6044 37.3728Z" fill="#E2E1DF"/>
<path d="M33.934 14.1201C31.6162 12.807 30.5427 11.3264 30.8284 9.85239C31.4258 6.76647 37.9292 4.02526 47.7943 2.69897L47.8272 2.94191C38.0671 4.25507 31.6491 6.92077 31.0844 9.89835C30.8185 11.2607 31.8526 12.6494 34.0686 13.91L33.934 14.1201Z" fill="#E2E1DF"/>
<path d="M11.2529 50.731H11.0067C11.0362 34.2214 17.2441 19.6158 28.0481 10.6601C37.2107 3.05689 48.9634 0.118709 61.1364 2.3839L61.0937 2.62684C48.9897 0.374776 37.3092 3.28342 28.2024 10.8341C17.4608 19.7602 11.2824 34.2969 11.2529 50.731Z" fill="#E2E1DF"/>
<path d="M1.42319 58.7117H1.17697C1.20652 43.7549 7.1781 29.6976 17.9985 19.1332C29.4197 7.9714 44.7311 2.03921 61.116 2.39048V2.6367C44.7934 2.27558 29.5477 8.19463 18.1758 19.3006C7.39805 29.8223 1.45273 43.8008 1.42319 58.7117Z" fill="#E2E1DF"/>
<path d="M61.4797 76.7675C39.1856 76.7675 17.663 73.2876 7.21356 67.3456L7.15118 67.3095V67.2471C7.21356 35.4687 31.4052 6.37578 61.0989 2.38379H61.1383L61.1744 2.40349C75.7406 10.6797 87.5426 43.2426 87.4835 74.9882V75.0965H87.3751C78.7897 76.2243 70.1389 76.7825 61.4797 76.7675V76.7675ZM7.38755 67.165C21.9209 75.3723 57.688 78.8292 87.2373 74.8733C87.2701 43.2689 75.5535 10.893 61.089 2.6497C31.5562 6.62857 7.47947 35.5574 7.38755 67.165Z" fill="#E2E1DF"/>
<path d="M61.4708 45.4816C42.2233 45.4816 23.6388 42.4876 14.6043 37.3564L14.7258 37.1398C27.2402 44.2669 58.2339 47.2511 83.7945 43.8106L83.8273 44.0568C76.4147 45.0241 68.9463 45.5 61.4708 45.4816V45.4816Z" fill="#E2E1DF"/>
<path d="M61.342 18.8738C50.0883 18.8738 39.2186 17.1207 33.9332 14.1201L34.0547 13.9067C41.3657 18.0563 59.4511 19.8159 74.3751 17.797L74.4079 18.0399C70.0759 18.6064 65.711 18.885 61.342 18.8738V18.8738Z" fill="#E2E1DF"/>
<path d="M28.0248 73.813H27.7785C27.8376 42.0608 42.7715 10.0231 61.067 2.39697L61.1622 2.62678C42.9488 10.2103 28.0838 42.1429 28.0248 73.813Z" fill="#E2E1DF"/>
<path d="M56.7591 76.5871H56.5129C56.572 44.8711 58.5844 11.6252 60.994 2.47583L61.2337 2.53821C58.824 11.6679 56.8182 44.8875 56.7591 76.5871Z" fill="#E2E1DF"/>
<path d="M87.2384 75.1261V74.985C87.2975 43.315 75.5513 10.8505 61.0541 2.61698L60.7258 2.43642L61.0902 2.38717C74.8783 0.535625 87.9737 4.35691 98.003 13.1386C103.337 17.8396 107.554 23.6717 110.347 30.2097C113.35 37.1037 114.87 44.6905 114.867 52.727C119.371 55.3008 121.459 58.1733 120.904 61.0294C119.726 67.0995 106.877 72.4966 87.3664 75.1196L87.2384 75.1261ZM61.4907 2.5743C75.8894 11.1098 87.5076 43.3609 87.4846 74.834C106.808 72.2077 119.519 66.9058 120.671 60.9605C121.206 58.2029 119.138 55.4091 114.69 52.8846L114.631 52.8485V52.7762C114.631 44.7463 113.131 37.1792 110.133 30.2852C107.351 23.7847 103.154 17.9865 97.8487 13.3126C87.9737 4.65893 75.0654 0.850783 61.4907 2.5743Z" fill="#E2E1DF"/>
<path d="M83.827 44.0568L83.7941 43.8106C100.537 41.5618 111.554 36.9691 112.552 31.8313C113.012 29.4611 111.239 27.0547 107.398 24.8782L107.52 24.6615C111.459 26.8971 113.274 29.3921 112.792 31.8839C111.777 37.1233 100.678 41.7916 83.827 44.0568Z" fill="#E2E1DF"/>
<path d="M74.4086 18.0399L74.3758 17.797C84.1325 16.4838 90.5539 13.8181 91.1185 10.8373C91.3812 9.47488 90.3503 8.0895 88.1311 6.82887L88.2526 6.61548C90.5703 7.92863 91.6471 9.40922 91.3582 10.8832C90.7738 13.9724 84.2737 16.7136 74.4086 18.0399Z" fill="#E2E1DF"/>
<path d="M111.012 69.2891H110.766C110.825 37.6387 88.5408 7.73162 61.0926 2.62672L61.1353 2.38379C88.6951 7.49853 111.071 37.5238 111.012 69.2891Z" fill="#E2E1DF"/>
<path d="M120.838 61.338H120.592C120.651 29.6975 93.9676 3.36541 61.1125 2.63989V2.39368C94.1055 3.10935 120.897 29.553 120.838 61.338Z" fill="#E2E1DF"/>
<path d="M61.0172 120C58.1001 119.999 55.187 119.785 52.3011 119.36C49.7438 118.986 47.7379 118.509 46.8811 118.306C44.5075 117.745 42.2194 116.973 42.1997 116.963C40.1259 116.278 38.0917 115.478 36.1066 114.567C34.7048 113.943 32.8237 112.984 31.4548 112.187C30.3025 111.53 28.9926 110.749 28.0373 110.089C26.3072 108.897 24.2948 107.413 22.9094 106.304C20.8445 104.662 18.3134 102.079 16.5899 100.289C15.2673 98.9007 14.0452 97.4196 12.9327 95.8575L12.3681 95.0532C11.5506 93.8845 10.6248 92.5582 9.94201 91.4716C9.06548 90.0764 8.06748 88.215 7.67682 87.4796C6.9119 86.0286 6.03537 84.0917 5.49041 82.7588C5.12601 81.879 4.7452 80.7891 4.37751 79.7517C4.2068 79.2658 4.04922 78.7964 3.88508 78.3729C3.31078 76.7336 2.85116 75.0564 2.50955 73.3534C1.87278 70.2082 1.41355 67.0297 1.13402 63.833C0.960025 61.3413 0.891084 57.7137 1.22266 55.002C1.27846 54.5391 1.33099 54.0171 1.38352 53.5017C1.51155 52.2706 1.65272 50.8754 1.8858 49.7855C1.981 49.3456 2.07949 48.8564 2.18126 48.3509C2.40449 47.2347 2.6343 46.0824 2.88052 45.1369C3.29089 43.4598 3.79171 41.8061 4.38079 40.183C4.53509 39.7924 4.70908 39.359 4.86995 38.9093C5.27374 37.8489 5.69395 36.7524 6.09118 35.8595C6.74776 34.3855 7.66697 32.5241 8.3892 31.2339C9.11144 29.9437 10.0306 28.4073 10.7332 27.3272C11.6787 25.8535 12.6988 24.4291 13.7896 23.0595C15.6387 20.7851 17.6114 18.614 19.6988 16.5561C20.7821 15.5351 22.3415 14.176 23.6678 13.0992C24.6789 12.2752 26.0019 11.2936 26.9507 10.6502C28.2638 9.7605 30.1515 8.58851 31.6091 7.73168C32.5152 7.20313 33.7594 6.54655 34.7081 6.09023C35.7357 5.60765 36.9109 5.06269 37.8137 4.67531C38.513 4.37985 39.4552 4.01873 40.1873 3.74297L40.4401 3.64776C42.1078 3.01416 44.2482 2.40026 44.8654 2.22955C45.8207 1.96364 46.5331 1.77652 47.0452 1.66161C48.1253 1.42196 49.8652 1.051 51.2178 0.808063C52.1239 0.643918 54.3004 0.33861 56.0994 0.200729C60.1372 -0.130725 64.1981 -0.0515296 68.2199 0.437097C71.0399 0.781801 73.1442 1.2414 73.1442 1.24469C74.5 1.55 76.0791 1.93409 77.1657 2.22955C78.0587 2.47249 79.2011 2.84017 79.792 3.03715C80.7047 3.33917 81.9259 3.78236 82.8254 4.13691C83.8431 4.53743 85.1793 5.12178 85.8851 5.45007C86.7912 5.85386 87.8548 6.39554 88.8397 6.91752C89.4076 7.2097 89.9723 7.51501 90.5271 7.83016L90.7076 7.94178C92.8284 9.25494 95.4645 10.8603 97.3358 12.3343C98.8032 13.4899 100.501 14.9146 101.663 15.9652C102.68 16.8877 103.938 18.1352 104.795 19.0773C106.019 20.4233 107.421 22.0582 108.356 23.2466C109.118 24.2118 110.159 25.6562 111.006 26.9267C111.853 28.1972 112.89 29.9273 113.721 31.4309C114.292 32.4682 114.932 33.8142 115.497 34.9994L115.766 35.5673C116.445 36.9855 117.184 38.9749 117.68 40.3931C118.008 41.2992 118.336 42.4121 118.632 43.4889C118.776 43.9846 118.914 44.4738 119.046 44.894C119.536 46.5683 119.902 48.2768 120.139 50.0054C120.195 50.4486 120.263 50.9345 120.336 51.4401C120.497 52.5956 120.664 53.7873 120.746 54.782C120.877 56.3808 120.969 58.5213 120.973 60.1069C120.919 63.347 120.651 66.58 120.172 69.7849C119.892 71.7159 119.481 73.6255 118.94 75.5004C118.835 75.8483 118.721 76.2292 118.612 76.6231C118.284 77.7393 117.906 79.0032 117.555 79.9881C117.002 81.6027 116.362 83.1862 115.638 84.7318L115.221 85.6609C114.706 86.7213 114.121 87.9228 113.609 88.8486C112.834 90.2405 111.767 91.9936 110.957 93.2083C109.167 95.8915 107.165 98.4264 104.969 100.788C104.552 101.232 103.094 102.758 101.879 103.881C100.589 105.063 99.0166 106.405 97.8709 107.302C96.9747 107.998 95.6385 108.996 94.5716 109.698C93.137 110.644 91.1968 111.809 89.8607 112.581C87.6564 113.785 85.3817 114.857 83.0487 115.788C81.8406 116.248 80.058 116.894 78.6923 117.318C77.4579 117.699 75.7213 118.165 74.372 118.477C69.9923 119.488 65.5121 119.999 61.0172 120ZM31.5795 111.973C32.9518 112.768 34.8099 113.72 36.2084 114.34C38.1864 115.248 40.2128 116.047 42.2785 116.733C42.3014 116.733 44.5765 117.508 46.9336 118.066C47.7904 118.27 49.7897 118.743 52.3372 119.117C59.6597 120.201 67.1206 119.901 74.3326 118.234C75.6753 117.925 77.4021 117.462 78.6299 117.081C79.9923 116.658 81.7683 116.018 82.9764 115.558C85.2906 114.63 87.5477 113.566 89.7359 112.37C91.072 111.596 93.0188 110.437 94.437 109.495C95.4974 108.795 96.8269 107.801 97.7199 107.105C98.8623 106.215 100.432 104.876 101.718 103.697C102.533 102.952 103.688 101.8 104.791 100.621C106.978 98.2677 108.973 95.7428 110.756 93.0704C111.564 91.8557 112.624 90.1158 113.383 88.7238C113.895 87.8046 114.476 86.6064 114.988 85.5493L115.441 84.6202C116.159 83.0815 116.794 81.5056 117.345 79.8994C117.696 78.9146 118.071 77.6605 118.399 76.5509C118.517 76.1569 118.629 75.7761 118.727 75.4249C119.263 73.5627 119.672 71.6663 119.952 69.7487C120.429 66.5558 120.696 63.3349 120.749 60.1069C120.749 58.5213 120.657 56.3907 120.526 54.7985C120.444 53.8136 120.277 52.6219 120.116 51.4729C120.044 50.964 119.975 50.488 119.919 50.0317C119.682 48.3187 119.319 46.6255 118.832 44.9662C118.701 44.5329 118.563 44.0536 118.419 43.5578C118.11 42.4843 117.788 41.3747 117.473 40.4752C116.974 39.0636 116.242 37.084 115.569 35.6756L115.296 35.1044C114.735 33.9226 114.095 32.5831 113.527 31.549C112.7 30.0488 111.639 28.2891 110.822 27.0646C110.004 25.8401 108.947 24.3595 108.196 23.4009C107.26 22.2158 105.865 20.5842 104.644 19.2415C103.793 18.3091 102.542 17.0649 101.531 16.149C100.369 15.1018 98.6785 13.6803 97.2176 12.5378C95.3529 11.0638 92.7233 9.44863 90.5993 8.15517L90.4253 8.04683C89.9329 7.77764 89.3551 7.46248 88.7478 7.14076C80.4388 2.873 70.9545 1.32019 61.1715 2.6235H61.1518H61.1091L61.0763 2.38057C68.1134 1.3849 75.2841 1.97489 82.0638 4.10737C81.2956 3.81847 80.4388 3.51316 79.7658 3.28664C79.165 3.08639 78.0291 2.72199 77.1395 2.48234C76.0561 2.19016 74.4836 1.82576 73.1311 1.49747C73.1114 1.49747 71.0497 1.04115 68.2231 0.693162C64.2099 0.207403 60.1576 0.131505 56.129 0.466643C54.3365 0.604525 52.1698 0.906549 51.2736 1.07069C49.9243 1.31363 48.1877 1.68131 47.1109 1.92096C46.5988 2.03586 45.8929 2.21971 44.9409 2.48562C44.327 2.65633 42.1931 3.26695 40.5385 3.89726L40.2825 3.99247C39.5405 4.27479 38.6148 4.62606 37.9188 4.92152C37.0193 5.30562 35.8506 5.85058 34.823 6.33316C33.8808 6.77635 32.6432 7.42637 31.7437 7.95491C30.2894 8.80846 28.4214 9.97717 27.0951 10.8636C26.1431 11.5201 24.8266 12.482 23.8122 13.2995C22.4991 14.3762 20.9397 15.7255 19.8727 16.7432C17.7861 18.7949 15.8134 20.9594 13.9635 23.2269C12.8787 24.5911 11.863 26.0089 10.9203 27.475C10.2211 28.5321 9.27887 30.1013 8.58946 31.3652C7.90005 32.6291 6.96771 34.5036 6.31113 35.9612C5.91719 36.8443 5.50026 37.931 5.09647 38.9979C4.92576 39.4477 4.76817 39.881 4.60731 40.275C4.02017 41.8877 3.5226 43.5316 3.11688 45.1993C2.87067 46.1382 2.64086 47.2872 2.41763 48.4001C2.31586 48.9057 2.21737 49.385 2.12545 49.838C1.89565 50.9148 1.7512 52.3035 1.62645 53.528C1.57064 54.0565 1.51811 54.5687 1.4623 55.0315C1.13402 57.7268 1.20296 61.3347 1.37695 63.8166C1.65527 66.999 2.11232 70.1632 2.74592 73.2943C3.08768 74.9848 3.54508 76.6498 4.11488 78.2777C4.26918 78.6979 4.44317 79.1706 4.60403 79.6565C4.97172 80.7005 5.35253 81.7772 5.71693 82.6538C6.26846 83.9669 7.12858 85.9071 7.89349 87.3483C8.28087 88.0837 9.27558 89.9385 10.1488 91.3272C10.8251 92.4105 11.7509 93.7335 12.5683 94.8989L13.133 95.7065C14.2376 97.257 15.4509 98.7271 16.7639 100.106C18.4808 101.891 21.0053 104.455 23.0604 106.1C24.4392 107.203 26.4484 108.687 28.1719 109.872C29.1239 110.529 30.4272 111.294 31.5762 111.96L31.5795 111.973Z" fill="#E2E1DF"/>
<path d="M60.8773 117.64L60.8412 117.62C46.2816 109.344 34.4632 76.784 34.5321 45.0385V44.9236H34.6405C64.2981 40.9349 100.262 44.4147 114.815 52.681L114.878 52.7171V52.7894C114.818 84.548 90.6006 113.641 60.92 117.633L60.8773 117.64ZM34.7915 45.1468C34.7619 76.7512 46.4786 109.124 60.9397 117.37C90.4857 113.375 114.549 84.4463 114.641 52.8419C100.098 44.6445 64.3375 41.1909 34.7915 45.1468Z" fill="#E2E1DF"/>
<path d="M87.974 106.113C80.6663 101.96 62.5776 100.204 47.6569 102.22L47.624 101.977C62.5907 99.9645 80.7484 101.724 88.0955 105.897L87.974 106.113Z" fill="#E2E1DF"/>
<path d="M107.291 82.8771C94.7666 75.7631 63.7827 72.7691 38.2221 76.2063L38.1893 75.9633C63.7958 72.5196 94.8487 75.5267 107.412 82.6637L107.291 82.8771Z" fill="#E2E1DF"/>
<path d="M60.9497 117.626L60.8545 117.4C79.068 109.807 93.9329 77.8739 93.992 46.2137H94.2382C94.1791 77.9658 79.2452 110 60.9497 117.626Z" fill="#E2E1DF"/>
<path d="M61.0215 117.544L60.7819 117.482C63.1915 108.349 65.1973 75.1327 65.2564 43.4331H65.5026C65.4436 75.1491 63.4344 108.395 61.0215 117.544Z" fill="#E2E1DF"/>
<path d="M54.1607 118.093C42.8938 118.093 32.3755 114.219 24.0008 106.881C18.6663 102.181 14.449 96.3491 11.6572 89.8105C8.65331 82.9164 7.13334 75.3296 7.1399 67.2931C2.63578 64.7161 0.547859 61.8468 1.09938 58.9907C2.29107 52.937 15.1304 47.5498 34.6407 44.9235L34.7785 44.9038V45.045C34.7195 76.7117 46.4656 109.176 60.9629 117.413L61.2912 117.594L60.93 117.64C58.6862 117.941 56.4247 118.093 54.1607 118.093V118.093ZM34.529 45.1796C15.206 47.8059 2.49461 53.1077 1.34232 59.0531C0.807207 61.8107 2.87543 64.6044 7.32374 67.129L7.38612 67.1651V67.2472C7.3697 75.2771 8.88312 82.8442 11.8804 89.7382C14.6625 96.2377 18.8592 102.035 24.165 106.707C34.0497 115.368 46.9515 119.182 60.5262 117.446C46.1275 108.887 34.5093 76.6526 34.5323 45.1796H34.529Z" fill="#E2E1DF"/>
<path d="M33.751 113.401C31.4332 112.088 30.3597 110.608 30.6453 109.134C31.2428 106.048 37.7429 103.306 47.6113 101.98L47.6441 102.223C37.8841 103.536 31.4661 106.202 30.9014 109.183C30.6355 110.545 31.6696 111.931 33.8856 113.191L33.751 113.401Z" fill="#E2E1DF"/>
<path d="M14.4996 95.3553C10.5601 93.1229 8.74138 90.6279 9.22397 88.1329C10.2417 82.8803 21.3378 78.2219 38.1889 75.9567L38.2217 76.1996C21.479 78.4517 10.4616 83.0411 9.46362 88.1789C9.00402 90.5524 10.7768 92.9588 14.621 95.1353L14.4996 95.3553Z" fill="#E2E1DF"/>
<path d="M60.8802 117.633C33.3039 112.505 10.9475 82.506 11.0066 50.731H11.2528C11.1937 82.3813 33.4746 112.285 60.9229 117.39L60.8802 117.633Z" fill="#E2E1DF"/>
<path d="M60.9004 117.636C27.8975 116.907 1.11895 90.4671 1.17805 58.692H1.42426C1.36517 90.3292 28.0485 116.661 60.9037 117.387L60.9004 117.636Z" fill="#E2E1DF"/>
<path d="M67.5481 119.55C65.1963 119.504 62.8972 118.845 60.8772 117.64C47.1154 119.481 34.0232 115.67 24.0038 106.882C18.6693 102.182 14.452 96.3491 11.6602 89.8105C8.64648 82.8869 7.12651 75.2837 7.14292 67.221V67.0109L7.32676 67.1126C21.8371 75.3593 57.7355 78.826 87.3439 74.8438L87.4851 74.8241V74.9653C87.4457 96.4026 81.9797 112.879 73.2242 117.971C71.5077 118.996 69.5474 119.542 67.5481 119.55ZM60.9265 117.384L60.9626 117.406C65.2304 119.836 69.3274 119.961 73.1093 117.768C81.7728 112.738 87.1863 96.4026 87.2487 75.1229C57.7421 79.0623 22.044 75.6252 7.39899 67.4475C7.39899 75.3986 8.92225 82.8935 11.8933 89.7285C14.6754 96.228 18.8721 102.025 24.1778 106.698C34.1513 115.437 47.1909 119.235 60.8969 117.39L60.9265 117.384Z" fill="#E2E1DF"/>
<path d="M61.1602 118.155C49.9065 118.155 39.0368 116.405 33.7514 113.401L33.8728 113.188C41.1806 117.341 59.2693 119.097 74.19 117.078L74.2228 117.324C69.8916 117.888 65.528 118.166 61.1602 118.155V118.155Z" fill="#E2E1DF"/>
<path d="M61.3631 103.484C42.1155 103.484 23.531 100.486 14.4998 95.3552L14.6213 95.1418C27.1455 102.259 58.1261 105.25 83.69 101.813L83.7195 102.056C76.307 103.024 68.8386 103.501 61.3631 103.484V103.484Z" fill="#E2E1DF"/>
<path d="M53.1756 119.271C49.676 119.261 46.2604 118.199 43.3729 116.221C33.5669 109.672 27.7365 93.8156 27.7726 73.8064H28.0188C27.9827 93.7335 33.7737 109.511 43.5108 116.014C48.701 119.485 54.6989 119.954 60.8477 117.4L60.9429 117.626C58.4884 118.684 55.8481 119.243 53.1756 119.271Z" fill="#E2E1DF"/>
<path d="M59.6983 119.984H59.6425C57.4265 119.695 56.4745 97.9882 56.5139 76.587H56.7601C56.7076 104.656 58.1881 119.54 59.6753 119.734C59.8329 119.764 60.2334 119.57 60.7816 117.482L61.0213 117.544C60.5846 119.202 60.1612 119.984 59.6983 119.984Z" fill="#E2E1DF"/>
<path d="M67.5476 119.55C65.3612 119.55 63.1025 118.894 60.8406 117.62L60.5123 117.439L60.8767 117.39C67.3217 116.5 73.5594 114.48 79.3036 111.425C84.2804 103.618 87.1989 90.6312 87.2285 74.985V74.8766H87.3335C98.0981 73.4289 106.821 71.1473 112.651 68.3831C113.943 63.2887 114.605 58.0549 114.621 52.7992V52.5891L114.805 52.6909C119.352 55.2745 121.459 58.1602 120.904 61.0294C120.382 63.7247 117.556 66.282 112.865 68.5374C108.17 87.0299 95.613 103.106 79.471 111.632C77.6457 114.481 75.5315 116.642 73.2138 117.997C71.4976 119.012 69.5411 119.548 67.5476 119.55V119.55ZM61.2838 117.58C65.4465 119.839 69.4221 119.901 73.1022 117.764C75.305 116.487 77.2977 114.481 79.0442 111.839C73.491 114.743 67.4859 116.686 61.2838 117.584V117.58ZM87.4845 75.0868C87.4419 90.4901 84.5989 103.32 79.7435 111.199C95.5867 102.686 107.907 86.8559 112.572 68.6556C106.739 71.3968 98.1014 73.6554 87.4845 75.09V75.0868ZM114.874 52.9929C114.842 58.1292 114.195 63.2431 112.947 68.2255C117.457 66.0424 120.169 63.5638 120.671 60.9638C121.2 58.2488 119.194 55.4945 114.874 52.9962V52.9929Z" fill="#E2E1DF"/>
<path d="M74.2221 117.324L74.1893 117.078C83.9493 115.765 90.3706 113.103 90.9484 110.122C91.211 108.759 90.1769 107.374 87.961 106.113L88.0825 105.897C90.4002 107.21 91.4737 108.69 91.1881 110.164C90.6004 113.254 84.0905 115.995 74.2221 117.324Z" fill="#E2E1DF"/>
<path d="M83.7063 102.046L83.6768 101.803C100.419 99.5508 111.434 94.9614 112.432 89.8236C112.891 87.4501 111.118 85.0437 107.277 82.8672L107.399 82.6538C111.338 84.8895 113.154 87.3845 112.675 89.8762C111.67 95.1255 100.571 99.7905 83.7063 102.046Z" fill="#E2E1DF"/>
<path d="M68.838 118.378C66.1681 118.375 63.5043 118.125 60.8802 117.633L60.9229 117.39C73.0269 119.642 84.7075 116.733 93.8142 109.183C104.556 100.27 110.734 85.7364 110.767 69.3022H111.013C110.98 85.8086 104.776 100.414 93.9718 109.353C86.9203 115.232 78.018 118.428 68.838 118.378Z" fill="#E2E1DF"/>
<path d="M62.3086 117.649C61.8391 117.649 61.3697 117.649 60.9002 117.649V117.403C77.2326 117.761 92.4718 111.845 103.844 100.739C114.615 90.2339 120.563 76.2324 120.586 61.3445H120.833C120.806 76.3013 114.832 90.3554 104.014 100.92C92.9281 111.734 78.1616 117.649 62.3086 117.649Z" fill="#E2E1DF"/>
<path d="M114.874 52.9929L114.69 52.8911C100.18 44.6445 64.2847 41.1778 34.673 45.1599L34.5318 45.1796V45.0384C34.5712 23.5979 40.0372 7.12106 48.796 2.03258C52.5844 -0.166951 56.8522 -0.0487675 61.1396 2.36087C74.8982 0.522455 87.9937 4.33061 98.0131 13.1189C103.347 17.8199 107.564 23.652 110.357 30.1899C113.37 37.1135 114.89 44.7134 114.877 52.7795L114.874 52.9929ZM60.5356 43.2624C82.7017 43.2624 104.103 46.693 114.631 52.5727C114.631 44.6182 113.105 37.1234 110.133 30.2917C107.351 23.7912 103.155 17.993 97.8489 13.3192C87.8755 4.58011 74.8424 0.785088 61.1331 2.62679H61.0904L61.0543 2.60709C56.7865 0.174469 52.6895 0.0530019 48.9076 2.24269C40.2572 7.27864 34.8437 23.6143 34.7912 44.8973C43.3276 43.789 51.9276 43.2429 60.5356 43.2624V43.2624Z" fill="#E2E1DF"/>
<path d="M107.399 24.8782C94.8678 17.7609 63.8872 14.7702 38.3299 18.2074L38.2971 17.9611C63.9036 14.5174 94.9532 17.5245 107.52 24.6615L107.399 24.8782Z" fill="#E2E1DF"/>
<path d="M88.1451 6.84205C80.8374 2.68919 62.7519 0.932847 47.8279 2.95182L47.7951 2.70889C62.7618 0.696479 80.9195 2.45282 88.2666 6.62866L88.1451 6.84205Z" fill="#E2E1DF"/>
<path d="M94.2381 46.2138H93.9918C94.028 26.2866 88.2369 10.5058 78.4999 4.00238C73.3096 0.532371 67.3151 0.0629175 61.1629 2.62029L61.0677 2.39049C67.3052 -0.206278 73.372 0.282872 78.6378 3.79556C88.4438 10.3482 94.2742 26.2111 94.2381 46.2138Z" fill="#E2E1DF"/>
<path d="M65.5025 43.4331H65.2563C65.322 15.3775 63.8283 0.476476 62.3411 0.27622C62.1934 0.25324 61.7863 0.437082 61.2348 2.52828L60.9951 2.46591C61.4514 0.74239 61.8946 -0.0290889 62.3739 0.0300032C64.5899 0.325463 65.5419 22.0418 65.5025 43.4331Z" fill="#E2E1DF"/>
<path d="M7.38874 67.4475L7.2049 67.3457C2.65481 64.7621 0.547197 61.8764 1.10201 59.0072C1.62727 56.3119 4.45055 53.7546 9.1418 51.4992C13.8363 33.0034 26.3934 16.9271 42.5386 8.40144C44.3639 5.5519 46.4781 3.39176 48.7958 2.03592C52.5941 -0.170179 56.875 -0.0454302 61.1756 2.39704L61.5039 2.5776L61.1428 2.62684C54.6932 3.51566 48.451 5.53492 42.7028 8.59185C37.7259 16.3986 34.8238 29.3857 34.7779 45.0319V45.1403H34.6728C23.9082 46.588 15.1889 48.8696 9.35847 51.6338C8.06642 56.7282 7.4049 61.962 7.38874 67.2177V67.4475ZM9.06958 51.7914C4.56217 53.9745 1.84722 56.4531 1.34494 59.0531C0.816394 61.7714 2.82224 64.5257 7.14252 67.024C7.1746 61.8877 7.82155 56.7738 9.06958 51.7914V51.7914ZM42.276 8.8118C26.4295 17.3473 14.1088 33.161 9.4307 51.3646C15.2775 48.6234 23.9148 46.3648 34.5317 44.9302C34.5744 29.5236 37.4173 16.6907 42.276 8.8118ZM54.4884 0.69322C52.5224 0.700195 50.5945 1.23659 48.9074 2.24603C46.7046 3.52635 44.7119 5.52892 42.9654 8.15523C48.5211 5.26132 54.5257 3.32674 60.7258 2.43315C58.5898 1.27539 56.5106 0.695409 54.4884 0.69322Z" fill="#E2E1DF"/>
<path d="M14.6054 37.3728C10.6659 35.1372 8.85046 32.6422 9.33305 30.1505C10.3475 24.8979 21.4469 20.2394 38.298 17.9742L38.3308 18.2205C21.5881 20.4692 10.5707 25.062 9.5727 30.1997C9.11309 32.5732 10.8859 34.9763 14.7268 37.1529L14.6054 37.3728Z" fill="#E2E1DF"/>
<path d="M33.9349 14.1201C31.6172 12.807 30.5437 11.3264 30.8293 9.85239C31.4268 6.76647 37.9302 4.02526 47.7953 2.69897L47.8281 2.94191C38.0681 4.25507 31.6501 6.92077 31.0854 9.89835C30.8195 11.2607 31.8536 12.6494 34.0695 13.91L33.9349 14.1201Z" fill="#E2E1DF"/>
<path d="M11.2538 50.731H11.0076C11.0372 34.2214 17.2451 19.6158 28.0491 10.6601C37.2117 3.05689 48.9644 0.118709 61.1373 2.3839L61.0947 2.62684C48.9907 0.374776 37.3101 3.28342 28.2034 10.8341C17.4618 19.7602 11.2834 34.2969 11.2538 50.731Z" fill="#E2E1DF"/>
<path d="M1.42416 58.7117H1.17795C1.20749 43.7549 7.17907 29.6976 17.9995 19.1332C29.4206 7.9714 44.732 2.03921 61.1169 2.39048V2.6367C44.7944 2.27558 29.5487 8.19463 18.1767 19.3006C7.39902 29.8223 1.45371 43.8008 1.42416 58.7117Z" fill="#E2E1DF"/>
<path d="M61.4807 76.7675C39.1866 76.7675 17.664 73.2876 7.21454 67.3456L7.15216 67.3095V67.2471C7.21454 35.4687 31.4062 6.37578 61.0999 2.38379H61.1393L61.1754 2.40349C75.7416 10.6797 87.5436 43.2426 87.4845 74.9882V75.0965H87.3761C78.7906 76.2243 70.1399 76.7825 61.4807 76.7675V76.7675ZM7.38853 67.165C21.9219 75.3723 57.689 78.8292 87.2382 74.8733C87.2711 43.2689 75.5544 10.893 61.09 2.6497C31.5572 6.62857 7.48045 35.5574 7.38853 67.165Z" fill="#E2E1DF"/>
<path d="M61.4718 45.4816C42.2242 45.4816 23.6398 42.4876 14.6053 37.3564L14.7268 37.1398C27.2411 44.2669 58.2349 47.2511 83.7955 43.8106L83.8283 44.0568C76.4157 45.0241 68.9472 45.5 61.4718 45.4816V45.4816Z" fill="#E2E1DF"/>
<path d="M61.343 18.8738C50.0893 18.8738 39.2196 17.1207 33.9342 14.1201L34.0556 13.9067C41.3666 18.0563 59.4521 19.8159 74.3761 17.797L74.4089 18.0399C70.0768 18.6064 65.712 18.885 61.343 18.8738V18.8738Z" fill="#E2E1DF"/>
<path d="M28.0257 73.813H27.7795C27.8386 42.0608 42.7725 10.0231 61.068 2.39697L61.1632 2.62678C42.9497 10.2103 28.0848 42.1429 28.0257 73.813Z" fill="#E2E1DF"/>
<path d="M56.7601 76.5869H56.5139C56.5729 44.8709 58.5854 11.6251 60.995 2.47571L61.2346 2.53808C58.825 11.6678 56.8192 44.8874 56.7601 76.5869Z" fill="#E2E1DF"/>
<path d="M87.2394 75.1261V74.985C87.2985 43.315 75.5523 10.8505 61.055 2.61698L60.7267 2.43642L61.0911 2.38717C74.8793 0.535625 87.9747 4.35691 98.004 13.1386C103.338 17.8396 107.555 23.6717 110.348 30.2097C113.351 37.1037 114.871 44.6905 114.868 52.727C119.372 55.3008 121.46 58.1733 120.905 61.0294C119.727 67.0995 106.878 72.4966 87.3674 75.1196L87.2394 75.1261ZM61.4917 2.5743C75.8904 11.1098 87.5086 43.3609 87.4856 74.834C106.809 72.2077 119.52 66.9058 120.672 60.9605C121.207 58.2029 119.139 55.4091 114.691 52.8846L114.632 52.8485V52.7762C114.632 44.7463 113.132 37.1792 110.134 30.2852C107.352 23.7847 103.155 17.9865 97.8497 13.3126C87.9747 4.65893 75.0664 0.850783 61.4917 2.5743Z" fill="#E2E1DF"/>
<path d="M83.8279 44.0568L83.7951 43.8106C100.538 41.5618 111.555 36.9691 112.553 31.8313C113.013 29.4611 111.24 27.0547 107.399 24.8782L107.521 24.6615C111.46 26.8971 113.275 29.3921 112.793 31.8839C111.778 37.1233 100.679 41.7916 83.8279 44.0568Z" fill="#E2E1DF"/>
<path d="M74.4096 18.0399L74.3768 17.797C84.1335 16.4838 90.5548 13.8181 91.1195 10.8373C91.3821 9.47488 90.3513 8.0895 88.1321 6.82887L88.2535 6.61548C90.5713 7.92863 91.6481 9.40922 91.3592 10.8832C90.7748 13.9724 84.2747 16.7136 74.4096 18.0399Z" fill="#E2E1DF"/>
<path d="M111.013 69.2891H110.767C110.826 37.6387 88.5418 7.73162 61.0936 2.62672L61.1362 2.38379C88.6961 7.49853 111.072 37.5238 111.013 69.2891Z" fill="#E2E1DF"/>
<path d="M120.839 61.338H120.593C120.652 29.6975 93.9686 3.36541 61.1135 2.63989V2.39368C94.1065 3.10935 120.898 29.553 120.839 61.338Z" fill="#E2E1DF"/>
<path d="M60.8022 119.997H60.5494L59.6531 119.98H59.2526C58.8882 119.98 58.3761 119.954 57.9395 119.928C55.4646 119.801 53 119.521 50.5595 119.091C46.1045 118.303 41.7539 117.01 37.5921 115.237C35.4953 114.329 33.4463 113.314 31.4531 112.197C29.6177 111.175 27.8461 110.042 26.148 108.805C25.8591 108.585 25.5472 108.352 25.2222 108.113C24.1224 107.292 22.8749 106.363 21.9689 105.529C21.6668 105.253 21.3353 104.951 20.984 104.639C20.2059 103.94 19.3984 103.215 18.7615 102.574C17.6453 101.452 16.2336 99.9285 15.2521 98.786C13.8634 97.1708 12.1268 94.7809 9.93707 91.4849C9.01975 90.0266 8.17608 88.5234 7.40924 86.9807C6.62147 85.4717 5.91892 83.9198 5.30491 82.3322C4.22103 79.3935 3.28533 76.4023 2.50133 73.3699C1.90712 70.8585 1.4902 67.4804 1.18817 64.818C1.05029 63.5705 1.02731 61.9914 1.01089 60.5994V59.9232C0.977673 58.1404 1.05992 56.3573 1.25711 54.5852C1.3162 54.1354 1.37529 53.6364 1.43767 53.1177C1.57227 51.972 1.71343 50.7869 1.88414 49.8119C2.16319 48.2229 2.60966 46.1711 2.99704 44.707C3.37129 43.292 3.9261 41.4832 4.37914 40.2094C4.76324 39.1228 5.32133 37.7801 5.81376 36.5982L6.31276 35.3836C7.01597 33.7389 7.8264 32.1422 8.73881 30.6037C10.0126 28.4534 11.9889 25.5021 13.7715 23.0826C14.8784 21.6015 16.0849 20.1975 17.3827 18.8805L18.2756 17.981C18.9913 17.2554 19.8054 16.4282 20.4948 15.8143C21.7784 14.6718 23.63 13.142 25.2124 11.9142C26.3417 11.0377 27.9306 9.99698 28.5609 9.5899C29.4867 8.99242 30.7309 8.27674 31.7322 7.68582L32.0276 7.51511C34.0263 6.37653 36.1017 5.37831 38.2389 4.52768C40.0707 3.8153 41.4594 3.30645 42.4771 2.97488C43.8099 2.54482 45.6188 2.05239 46.8663 1.73395C48.4355 1.33672 50.4775 0.969033 51.0553 0.86398C52.3684 0.634178 53.4518 0.506145 54.5942 0.374829C55.0111 0.325586 56.623 0.174574 57.493 0.131896C58.6814 0.072804 59.7057 0.0202773 61.4554 0.030126C64.2227 0.0589884 66.9847 0.278367 69.7218 0.686704C71.0513 0.877111 72.5943 1.17257 73.3067 1.32359C74.3277 1.54354 75.8312 1.91451 77.3381 2.30845C78.1916 2.53825 79.3866 2.9125 80.3091 3.23751C81.678 3.72338 83.2834 4.33728 84.4061 4.80673C86.3759 5.62745 88.8774 6.96359 90.5418 7.84668C90.9227 8.06336 91.3002 8.28659 91.6744 8.50326C92.8431 9.19595 94.199 10.0298 95.2068 10.7783C95.5023 10.9983 95.8306 11.2379 96.172 11.4841C96.9533 12.0553 97.8397 12.7021 98.516 13.2536C99.8777 14.3277 101.184 15.4706 102.429 16.6777C102.721 16.9797 103.046 17.308 103.388 17.6625C104.133 18.411 104.904 19.1825 105.509 19.8588C106.638 21.1227 107.925 22.6755 108.791 23.7982C109.658 24.921 110.709 26.4246 111.401 27.5145C111.782 28.1087 113.099 30.19 113.985 31.9037C115.514 34.7656 116.806 37.7476 117.849 40.82C118.939 44.0208 119.819 48.305 120.147 49.9957C120.452 51.5682 120.666 53.7021 120.804 55.2155C120.892 56.2989 120.928 57.6645 120.958 58.8726C120.958 59.306 120.981 59.7229 120.994 60.1037C121.029 62.1077 120.925 64.1117 120.685 66.1016C120.482 67.7857 120.259 69.5256 120.006 70.8618C119.71 72.4408 119.241 74.4893 118.837 75.9535C118.453 77.3586 117.878 79.1543 117.412 80.4281C117.002 81.5377 116.427 82.9067 115.899 84.1148L115.423 85.2342C114.795 86.6378 114.093 88.0065 113.319 89.3346C112.695 90.4278 111.838 91.7672 111.083 92.9457L110.528 93.8387C109.476 95.414 108.331 96.9257 107.101 98.3658C105.223 100.601 103.193 102.704 101.024 104.659C99.711 105.802 97.8331 107.325 96.218 108.546C95.3217 109.222 94.0906 110.02 93.1025 110.66L92.8694 110.811C90.6966 112.17 88.4425 113.395 86.1198 114.478C85.3024 114.839 83.221 115.749 81.6025 116.346C80.3912 116.793 78.6479 117.357 77.2363 117.751C75.1623 118.333 73.0595 118.808 70.9364 119.173C69.3475 119.442 68.4513 119.544 67.4106 119.662C66.8033 119.731 65.3161 119.862 64.5118 119.902C63.3694 119.961 62.6307 119.997 61.8428 120H60.8022V119.997ZM61.0549 0.276343C59.5579 0.276343 58.6092 0.322304 57.5225 0.378113C56.6559 0.42079 55.0538 0.56852 54.6402 0.617763C53.4977 0.752362 52.4209 0.877111 51.1143 1.10691C49.555 1.38268 47.9956 1.7044 46.9451 1.9736C45.7009 2.30188 43.8986 2.78119 42.569 3.21125C41.5546 3.53954 40.1725 4.0451 38.3439 4.75749C36.219 5.59667 34.1555 6.58396 32.1688 7.71209L31.8733 7.8828C30.8885 8.46387 29.6311 9.19595 28.7086 9.78031C28.0816 10.1841 26.5025 11.2215 25.3798 12.0783C23.8007 13.3028 21.9557 14.8294 20.6754 15.9686C19.9926 16.5759 19.1817 17.3999 18.466 18.1254L17.5731 19.0249C16.2797 20.3321 15.0786 21.7274 13.9783 23.2008C12.1957 25.6137 10.226 28.5551 8.95549 30.7022C8.05292 32.2356 7.25235 33.8269 6.55898 35.4656C6.40468 35.8432 6.23069 36.2535 6.05669 36.6803C5.56754 37.8621 5.00945 39.2016 4.62535 40.2915C4.1756 41.562 3.64049 43.3577 3.24982 44.7693C2.85916 46.181 2.42254 48.2722 2.14349 49.8545C1.97278 50.823 1.83162 52.0048 1.69702 53.1374C1.63793 53.6561 1.57883 54.1551 1.51974 54.6082C1.32242 56.3682 1.24018 58.1393 1.27353 59.91V60.5863C1.29322 61.9717 1.3162 63.5409 1.45408 64.7786C1.74954 67.4377 2.16319 70.8059 2.76724 73.3141C3.54795 76.3381 4.48149 79.3206 5.56426 82.2501C6.17449 83.8287 6.87265 85.3719 7.65546 86.8724C8.41668 88.4063 9.25489 89.9009 10.1669 91.3503C11.7902 93.8772 13.5594 96.3074 15.4655 98.6284C16.4503 99.7676 17.8488 101.288 18.9617 102.407C19.5953 103.041 20.3964 103.763 21.1744 104.462C21.5224 104.774 21.8572 105.073 22.1593 105.348C23.0588 106.176 24.303 107.102 25.3962 107.919C25.7245 108.159 26.0331 108.392 26.322 108.612C28.011 109.841 29.7727 110.967 31.5976 111.983C33.5834 113.097 35.6247 114.108 37.7136 115.013C44.1426 117.75 51.0039 119.331 57.9822 119.685C58.4056 119.711 58.9145 119.731 59.2789 119.737H59.6761L60.5691 119.754C60.8383 119.754 61.1666 119.754 61.4719 119.754H61.8625C62.6439 119.754 63.3825 119.714 64.4888 119.659C65.3096 119.616 66.7869 119.485 67.3942 119.416C68.4283 119.297 69.3245 119.196 70.9036 118.93C73.0192 118.568 75.1143 118.096 77.1805 117.515C78.5757 117.124 80.3222 116.56 81.527 116.116C83.1422 115.522 85.2137 114.616 86.0312 114.252C88.3407 113.174 90.5827 111.957 92.7447 110.608L92.9777 110.453C93.9626 109.817 95.1904 109.019 96.0801 108.349C97.692 107.131 99.5731 105.611 100.873 104.475C103.032 102.527 105.054 100.432 106.923 98.2049C108.148 96.7738 109.286 95.2708 110.331 93.7041L110.896 92.8177C111.648 91.6424 112.501 90.3096 113.125 89.2065C113.896 87.8888 114.596 86.5311 115.223 85.139L115.699 84.0163C116.214 82.8115 116.798 81.4458 117.205 80.3427C117.672 79.0755 118.243 77.2864 118.627 75.8879C119.027 74.427 119.497 72.3916 119.792 70.8191C120.039 69.4862 120.262 67.7496 120.465 66.072C120.705 64.0954 120.809 62.1045 120.774 60.1136C120.774 59.7295 120.751 59.3125 120.738 58.8759C120.708 57.6744 120.675 56.312 120.587 55.2352C120.462 53.7284 120.259 51.6043 119.93 50.045C119.602 48.3543 118.712 44.0865 117.632 40.8988C116.595 37.8347 115.309 34.8603 113.788 32.0055C112.905 30.3016 111.595 28.2301 111.214 27.6359C110.525 26.5592 109.504 25.1081 108.614 23.9394C107.724 22.7707 106.474 21.2606 105.331 19.9999C104.73 19.3434 103.962 18.5588 103.22 17.8135C102.892 17.4852 102.564 17.157 102.258 16.8287C101.02 15.6264 99.7207 14.489 98.365 13.421L98.2829 13.3521C108.627 22.5442 114.661 36.3126 114.861 51.8571C114.861 52.1197 114.861 52.3856 114.861 52.6516V52.7665C114.819 84.5481 90.6009 113.641 60.9203 117.633L60.8875 117.39C90.4631 113.411 114.566 84.4299 114.632 52.7829V52.668C114.632 33.8143 106.04 17.4918 91.5628 8.7068L90.4368 8.05022C88.7789 7.17041 86.2675 5.83756 84.3241 5.02012C83.2079 4.55395 81.6058 3.94005 80.2401 3.45746C79.3242 3.12917 78.1358 2.76149 77.2855 2.53497C75.7853 2.13117 74.285 1.76021 73.2673 1.5501C72.5582 1.39581 71.0251 1.10363 69.7021 0.913223C66.9752 0.514078 64.2244 0.301291 61.4686 0.276343H61.0549Z" fill="#E2E1DF"/>
</svg>
